SplineFontDB: 3.2
FontName: NewEng_Hanguel_Style
FullName: NewEng Hanguel Style Regular
FamilyName: NewEng Hanguel
Weight: Regular
Copyright: Copyright (c) 2024, Phlowyd (Farran Lee De Tao)
UComments: "2024-5-8: Created with FontForge (http://fontforge.org)"
Version: 001.000
ItalicAngle: 0
UnderlinePosition: -100
UnderlineWidth: 50
Ascent: 800
Descent: 200
InvalidEm: 0
LayerCount: 2
Layer: 0 0 "Back" 1
Layer: 1 0 "Fore" 0
XUID: [1021 59 1062431447 24466]
StyleMap: 0x0000
FSType: 0
OS2Version: 0
OS2_WeightWidthSlopeOnly: 0
OS2_UseTypoMetrics: 1
CreationTime: 1715150662
ModificationTime: 1715932196
OS2TypoAscent: 0
OS2TypoAOffset: 1
OS2TypoDescent: 0
OS2TypoDOffset: 1
OS2TypoLinegap: 90
OS2WinAscent: 0
OS2WinAOffset: 1
OS2WinDescent: 0
OS2WinDOffset: 1
HheadAscent: 0
HheadAOffset: 1
HheadDescent: 0
HheadDOffset: 1
Lookup: 4 0 1 "'liga' Standard Ligatures lookup 0" { "'liga' Standard Ligatures lookup 0-1"  } ['liga' ('DFLT' <'dflt' > 'armn' <'dflt' > 'cyrl' <'dflt' > 'grek' <'dflt' > 'latn' <'dflt' > ) ]
Lookup: 260 0 0 "'abvm' Above Base Mark lookup 1" { "'abvm' Above Base Mark lookup 1-1"  } ['abvm' ('DFLT' <'dflt' > 'armn' <'dflt' > 'cyrl' <'dflt' > 'grek' <'dflt' > 'latn' <'dflt' > ) ]
MarkAttachClasses: 1
DEI: 91125
Encoding: ISO8859-1
UnicodeInterp: none
NameList: AGL For New Fonts
DisplaySize: -72
AntiAlias: 1
FitToEm: 0
WidthSeparation: 140
WinInfo: 60 10 7
BeginPrivate: 0
EndPrivate
Grid
-1000 580.166625977 m 0
 2000 580.166625977 l 1024
-1000 172.166625977 m 0
 2000 172.166625977 l 1024
EndSplineSet
AnchorClass2: "Anchora 1" "'abvm' Above Base Mark lookup 1-1"
BeginChars: 290 90

StartChar: A
Encoding: 65 65 0
Width: 996
Flags: W
HStem: -36.8291 21G<78.7378 97.8726 820.884 840.019> -36.8291 21G<78.7378 97.8726 820.884 840.019> 334.245 73.6582<205.285 789.225> 705.317 73.6582<205.285 811.146>
VStem: 69 114.362<0.101473 334.245 370.791 705.317> 811.146 114.362<0.101473 371.353 407.903 705.317>
AnchorPoint: "Anchora 1" 526 891 basechar 0
LayerCount: 2
Back
SplineSet
183.76953125 371.07421875 m 1
 740.3828125 371.07421875 l 1025
91 0 m 1
 91 742.146484375 l 1025
183.76953125 742.146484375 m 1
 833.146484375 742.146484375 l 1
 833.146484375 0 l 1025
EndSplineSet
Fore
SplineSet
823.30859375 -36.8291015625 m 0xbc
 818.459960938 -36.8291015625 811.146484375 -35.7099609375 811.146484375 -28.953125 c 2
 811.146484375 371.352539062 l 1
 788.102539062 352.572265625 752.022460938 334.245117188 730.544921875 334.245117188 c 2
 183.362304688 334.245117188 l 1
 183.362304688 28.953125 l 2
 183.362304688 7.548828125 114.583007812 -36.8291015625 81.162109375 -36.8291015625 c 0
 76.3134765625 -36.8291015625 69 -35.7099609375 69 -28.953125 c 2
 69 713.193359375 l 2
 69 734.59765625 137.779296875 778.975585938 171.200195312 778.975585938 c 0
 176.048828125 778.975585938 183.362304688 777.856445312 183.362304688 771.099609375 c 2
 183.362304688 741.86328125 l 1
 206.40625 760.645507812 242.490234375 778.975585938 263.969726562 778.975585938 c 2
 913.346679688 778.975585938 l 1
 925.508789062 771.099609375 l 1
 925.508789062 28.953125 l 2
 925.508789062 7.548828125 856.729492188 -36.8291015625 823.30859375 -36.8291015625 c 0xbc
183.362304688 705.317382812 m 1
 183.362304688 370.791015625 l 1
 206.40625 389.573242188 242.490234375 407.903320312 263.969726562 407.903320312 c 2
 811.146484375 407.903320312 l 1
 811.146484375 705.317382812 l 1
 183.362304688 705.317382812 l 1
EndSplineSet
Validated: 524289
EndChar

StartChar: Amacron
Encoding: 256 256 2
Width: 942
Flags: W
HStem: -36.8291 21G<52.7832 71.9175 794.932 814.066> -36.8291 21G<52.7832 71.9175 794.932 814.066> 241.474 73.6582<179.33 761.714> 612.554 73.6582<179.33 785.194> 798.089 73.6582<180.487 762.108>
VStem: 43.0459 114.361<0.101473 241.474 278.024 612.554> 785.194 114.361<0.101473 280.133 315.132 612.554>
AnchorPoint: "Anchora 1" 478 969 basechar 0
LayerCount: 2
Back
SplineSet
192.990234375 278.302734375 m 5
 747.73828125 278.302734375 l 1029
192.990234375 649.3828125 m 5
 842.375 649.3828125 l 5
 842.375 0 l 1029
100.2265625 649.3828125 m 5
 100.2265625 0 l 1029
192.990234375 834.91796875 m 5
 749.60546875 834.91796875 l 1029
EndSplineSet
Fore
SplineSet
785.194335938 315.131835938 m 1x3e
 785.194335938 612.553710938 l 1
 157.407226562 612.553710938 l 1
 157.407226562 278.024414062 l 1
 180.452148438 296.8046875 216.532226562 315.131835938 238.009765625 315.131835938 c 2
 785.194335938 315.131835938 l 1x3e
806.786132812 863.87109375 m 0
 806.786132812 842.466796875 738.006835938 798.088867188 704.5859375 798.088867188 c 2
 147.970703125 798.088867188 l 2
 143.123046875 798.088867188 135.809570312 799.208007812 135.809570312 805.96484375 c 0
 135.809570312 827.369140625 204.588867188 871.747070312 238.009765625 871.747070312 c 2
 794.625 871.747070312 l 2
 799.47265625 871.747070312 806.786132812 870.627929688 806.786132812 863.87109375 c 0
797.35546875 -36.8291015625 m 0xbe
 792.5078125 -36.8291015625 785.194335938 -35.7099609375 785.194335938 -28.953125 c 2
 785.194335938 280.1328125 l 1
 762.274414062 260.82421875 724.788085938 241.473632812 702.71875 241.473632812 c 2
 157.407226562 241.473632812 l 1
 157.407226562 28.953125 l 2
 157.407226562 7.548828125 88.6279296875 -36.8291015625 55.20703125 -36.8291015625 c 0
 50.359375 -36.8291015625 43.0458984375 -35.7099609375 43.0458984375 -28.953125 c 2
 43.0458984375 620.4296875 l 2
 43.0458984375 641.833984375 111.825195312 686.211914062 145.24609375 686.211914062 c 0
 150.09375 686.211914062 157.407226562 685.092773438 157.407226562 678.3359375 c 2
 157.407226562 649.104492188 l 1
 180.452148438 667.884765625 216.532226562 686.211914062 238.009765625 686.211914062 c 2
 887.39453125 686.211914062 l 1
 899.555664062 678.3359375 l 1
 899.555664062 28.953125 l 2
 899.555664062 7.548828125 830.776367188 -36.8291015625 797.35546875 -36.8291015625 c 0xbe
EndSplineSet
Validated: 524289
EndChar

StartChar: B
Encoding: 66 66 3
Width: 996
Flags: W
HStem: -36.8291 73.6582<206.447 789.229> 334.245 73.6582<205.285 811.152> 705.317 73.6582<205.285 625.613>
VStem: 69 114.361<0.101473 334.245 370.791 705.317> 625.613 114.361<463.945 705.317> 811.152 114.361<36.8291 334.245>
AnchorPoint: "Anchora 1" 434 891 basechar 0
LayerCount: 2
Back
SplineSet
202.21875 0 m 1
 758.83203125 0 l 1025
202.21875 371.07421875 m 1
 851.6015625 371.07421875 l 1
 851.6015625 0 l 1025
202.21875 742.146484375 m 1
 666.0625 742.146484375 l 1
 666.0625 463.84375 l 1025
109.44921875 742.146484375 m 1
 109.44921875 0 l 1025
EndSplineSet
Fore
SplineSet
81.1611328125 -36.8291015625 m 0
 76.3134765625 -36.8291015625 69 -35.7099609375 69 -28.953125 c 2
 69 713.193359375 l 2
 69 734.59765625 137.779296875 778.975585938 171.200195312 778.975585938 c 0
 176.047851562 778.975585938 183.361328125 777.856445312 183.361328125 771.099609375 c 2
 183.361328125 741.86328125 l 1
 206.40625 760.645507812 242.490234375 778.975585938 263.969726562 778.975585938 c 2
 727.813476562 778.975585938 l 1
 739.974609375 771.099609375 l 1
 739.974609375 492.796875 l 2
 739.974609375 471.392578125 671.1953125 427.014648438 637.774414062 427.014648438 c 0
 632.926757812 427.014648438 625.61328125 428.133789062 625.61328125 434.890625 c 2
 625.61328125 705.317382812 l 1
 183.361328125 705.317382812 l 1
 183.361328125 370.791015625 l 1
 206.40625 389.573242188 242.490234375 407.903320312 263.969726562 407.903320312 c 2
 913.352539062 407.903320312 l 1
 925.513671875 400.02734375 l 1
 925.513671875 28.953125 l 2
 925.513671875 7.548828125 856.734375 -36.8291015625 823.313476562 -36.8291015625 c 0
 818.465820312 -36.8291015625 811.15234375 -35.7099609375 811.15234375 -28.953125 c 2
 811.15234375 0.283203125 l 1
 788.107421875 -18.4990234375 752.0234375 -36.8291015625 730.543945312 -36.8291015625 c 2
 173.930664062 -36.8291015625 l 2
 169.083007812 -36.8291015625 161.76953125 -35.7099609375 161.76953125 -28.953125 c 0
 161.76953125 -7.548828125 230.548828125 36.8291015625 263.969726562 36.8291015625 c 2
 811.15234375 36.8291015625 l 1
 811.15234375 334.245117188 l 1
 183.361328125 334.245117188 l 1
 183.361328125 28.953125 l 2
 183.361328125 7.548828125 114.58203125 -36.8291015625 81.1611328125 -36.8291015625 c 0
EndSplineSet
Validated: 524289
EndChar

StartChar: C
Encoding: 67 67 4
Width: 994
Flags: W
HStem: -36.8291 73.6582<183.361 880.83> 705.317 73.6582<113.678 880.83>
VStem: 69 114.361<36.8291 649.281>
AnchorPoint: "Anchora 1" 526 891 basechar 0
LayerCount: 2
Back
SplineSet
127.180664062 649.3828125 m 1
 127.180664062 0 l 1
 869.327148438 0 l 1025
127.180664062 742.146484375 m 1
 869.327148438 742.146484375 l 1025
EndSplineSet
Fore
SplineSet
925.5078125 771.099609375 m 0
 925.5078125 749.6953125 856.728515625 705.317382812 823.307617188 705.317382812 c 2
 81.1611328125 705.317382812 l 2
 76.3134765625 705.317382812 69 706.436523438 69 713.193359375 c 0
 69 734.59765625 137.779296875 778.975585938 171.200195312 778.975585938 c 2
 913.346679688 778.975585938 l 2
 918.194335938 778.975585938 925.5078125 777.856445312 925.5078125 771.099609375 c 0
925.5078125 28.953125 m 0
 925.5078125 7.548828125 856.728515625 -36.8291015625 823.307617188 -36.8291015625 c 2
 81.1611328125 -36.8291015625 l 1
 69 -28.953125 l 1
 69 620.4296875 l 2
 69 641.833984375 137.779296875 686.211914062 171.200195312 686.211914062 c 0
 176.047851562 686.211914062 183.361328125 685.092773438 183.361328125 678.3359375 c 2
 183.361328125 36.8291015625 l 1
 913.346679688 36.8291015625 l 2
 918.194335938 36.8291015625 925.5078125 35.7099609375 925.5078125 28.953125 c 0
EndSplineSet
Validated: 524289
EndChar

StartChar: D
Encoding: 68 68 5
Width: 996
Flags: W
HStem: -36.8291 73.6582<206.447 789.224> 705.317 73.6582<205.285 630.526>
VStem: 69 114.361<0.101473 705.317> 811.146 114.361<36.8291 524.697>
AnchorPoint: "Anchora 1" 422 891 basechar 0
LayerCount: 2
Back
SplineSet
193.89453125 0 m 5
 750.5078125 0 l 1029
193.89453125 742.146484375 m 5
 657.73828125 742.146484375 l 5
 843.271484375 556.61328125 l 5
 843.271484375 0 l 1029
101.125 742.146484375 m 5
 101.125 0 l 1029
EndSplineSet
Fore
SplineSet
823.307617188 -36.8291015625 m 0
 818.459960938 -36.8291015625 811.146484375 -35.7099609375 811.146484375 -28.953125 c 2
 811.146484375 0.2783203125 l 1
 788.1015625 -18.501953125 752.021484375 -36.8291015625 730.543945312 -36.8291015625 c 2
 173.930664062 -36.8291015625 l 2
 169.083007812 -36.8291015625 161.76953125 -35.7099609375 161.76953125 -28.953125 c 0
 161.76953125 -7.548828125 230.548828125 36.8291015625 263.969726562 36.8291015625 c 2
 811.146484375 36.8291015625 l 1
 811.146484375 524.697265625 l 1
 630.526367188 705.317382812 l 1
 183.361328125 705.317382812 l 1
 183.361328125 28.953125 l 2
 183.361328125 7.548828125 114.58203125 -36.8291015625 81.1611328125 -36.8291015625 c 0
 76.3134765625 -36.8291015625 69 -35.7099609375 69 -28.953125 c 2
 69 713.193359375 l 2
 69 734.59765625 137.779296875 778.975585938 171.200195312 778.975585938 c 0
 176.047851562 778.975585938 183.361328125 777.856445312 183.361328125 771.099609375 c 2
 183.361328125 741.86328125 l 1
 206.40625 760.645507812 242.490234375 778.975585938 263.969726562 778.975585938 c 2
 727.813476562 778.975585938 l 1
 738.0625 775.975585938 l 1
 923.595703125 590.442382812 l 1
 925.5078125 585.56640625 l 1
 925.5078125 28.953125 l 2
 925.5078125 7.548828125 856.728515625 -36.8291015625 823.307617188 -36.8291015625 c 0
EndSplineSet
Validated: 524289
EndChar

StartChar: Ccedilla
Encoding: 199 199 6
Width: 917
Flags: W
HStem: -129.599 73.6582<172.163 591.329> 148.712 73.6582<149.077 846.554> 705.317 73.6582<79.3935 846.554>
VStem: 34.7158 114.361<222.37 649.281> 591.329 114.361<-55.9404 92.6681>
AnchorPoint: "Anchora 1" 480 891 basechar 0
LayerCount: 2
Back
SplineSet
648.509765625 92.76953125 m 1
 648.509765625 -92.76953125 l 1
 184.666015625 -92.76953125 l 1025
91.896484375 649.3828125 m 1
 91.896484375 185.541015625 l 1
 834.05078125 185.541015625 l 1025
91.896484375 742.146484375 m 1
 834.05078125 742.146484375 l 1025
EndSplineSet
Fore
SplineSet
891.231445312 771.099609375 m 0
 891.231445312 749.6953125 822.452148438 705.317382812 789.03125 705.317382812 c 2
 46.876953125 705.317382812 l 2
 42.029296875 705.317382812 34.7158203125 706.436523438 34.7158203125 713.193359375 c 0
 34.7158203125 734.59765625 103.495117188 778.975585938 136.916015625 778.975585938 c 2
 879.0703125 778.975585938 l 2
 883.91796875 778.975585938 891.231445312 777.856445312 891.231445312 771.099609375 c 0
891.231445312 214.494140625 m 0
 891.231445312 193.08984375 822.452148438 148.711914062 789.03125 148.711914062 c 2
 46.876953125 148.711914062 l 1
 34.7158203125 156.587890625 l 1
 34.7158203125 620.4296875 l 2
 34.7158203125 641.833984375 103.495117188 686.211914062 136.916015625 686.211914062 c 0
 141.763671875 686.211914062 149.077148438 685.092773438 149.077148438 678.3359375 c 2
 149.077148438 222.370117188 l 1
 879.0703125 222.370117188 l 2
 883.91796875 222.370117188 891.231445312 221.250976562 891.231445312 214.494140625 c 0
127.485351562 -121.72265625 m 0
 127.485351562 -100.318359375 196.264648438 -55.9404296875 229.685546875 -55.9404296875 c 2
 591.329101562 -55.9404296875 l 1
 591.329101562 63.81640625 l 2
 591.329101562 85.220703125 660.108398438 129.598632812 693.529296875 129.598632812 c 0
 698.376953125 129.598632812 705.690429688 128.479492188 705.690429688 121.72265625 c 2
 705.690429688 -63.81640625 l 1
 603.490234375 -129.598632812 l 1
 139.646484375 -129.598632812 l 2
 134.798828125 -129.598632812 127.485351562 -128.479492188 127.485351562 -121.72265625 c 0
EndSplineSet
Validated: 524289
EndChar

StartChar: E
Encoding: 69 69 7
Width: 994
Flags: W
HStem: -36.8291 73.6582<183.361 880.838> 334.245 73.6582<195.537 695.297> 705.317 73.6582<113.678 880.838>
VStem: 69 114.361<36.8291 334.245 378.155 649.281>
AnchorPoint: "Anchora 1" 508 891 basechar 0
LayerCount: 2
Back
SplineSet
181.610351562 371.07421875 m 1
 655.185546875 371.07421875 l 1025
98.572265625 649.3828125 m 1
 98.572265625 0 l 1
 840.7265625 0 l 1025
98.572265625 742.146484375 m 1
 840.7265625 742.146484375 l 1025
EndSplineSet
Fore
SplineSet
925.515625 771.099609375 m 0
 925.515625 749.6953125 856.736328125 705.317382812 823.315429688 705.317382812 c 2
 81.1611328125 705.317382812 l 2
 76.3134765625 705.317382812 69 706.436523438 69 713.193359375 c 0
 69 734.59765625 137.779296875 778.975585938 171.200195312 778.975585938 c 2
 913.354492188 778.975585938 l 2
 918.202148438 778.975585938 925.515625 777.856445312 925.515625 771.099609375 c 0
739.974609375 400.02734375 m 0
 739.974609375 378.623046875 671.1953125 334.245117188 637.774414062 334.245117188 c 2
 183.361328125 334.245117188 l 1
 183.361328125 36.8291015625 l 1
 913.354492188 36.8291015625 l 2
 918.202148438 36.8291015625 925.515625 35.7099609375 925.515625 28.953125 c 0
 925.515625 7.548828125 856.736328125 -36.8291015625 823.315429688 -36.8291015625 c 2
 81.1611328125 -36.8291015625 l 1
 69 -28.953125 l 1
 69 620.4296875 l 2
 69 641.833984375 137.779296875 686.211914062 171.200195312 686.211914062 c 0
 176.047851562 686.211914062 183.361328125 685.092773438 183.361328125 678.3359375 c 2
 183.361328125 378.155273438 l 1
 205.935546875 394.087890625 235.590820312 407.903320312 254.23828125 407.903320312 c 2
 727.813476562 407.903320312 l 2
 732.661132812 407.903320312 739.974609375 406.784179688 739.974609375 400.02734375 c 0
EndSplineSet
Validated: 524289
EndChar

StartChar: Dcroat
Encoding: 257 272 8
Width: 1028
Flags: W
HStem: -36.8291 73.6582<256.612 839.394> 334.245 73.6582<233.532 467.157> 705.317 73.6582<255.455 680.691>
VStem: 119.171 114.361<0.101473 334.245 407.903 705.317> 861.317 114.361<36.8291 524.697>
AnchorPoint: "Anchora 1" 473 891 basechar 0
LayerCount: 2
Back
SplineSet
85.1005859375 371.07421875 m 5
 454.654296875 371.07421875 l 1029
269.115234375 0 m 5
 825.728515625 0 l 1029
269.115234375 742.146484375 m 5
 732.958984375 742.146484375 l 5
 918.498046875 556.61328125 l 5
 918.498046875 0 l 1029
176.3515625 742.146484375 m 5
 176.3515625 0 l 1029
EndSplineSet
Fore
SplineSet
131.33203125 -36.8291015625 m 0
 126.484375 -36.8291015625 119.170898438 -35.7099609375 119.170898438 -28.953125 c 2
 119.170898438 334.245117188 l 1
 40.0810546875 334.245117188 l 2
 35.2333984375 334.245117188 27.919921875 335.364257812 27.919921875 342.12109375 c 0
 27.919921875 361.390625 83.666015625 399.28125 119.170898438 406.646484375 c 1
 119.170898438 713.193359375 l 2
 119.170898438 734.59765625 187.950195312 778.975585938 221.37109375 778.975585938 c 0
 226.21875 778.975585938 233.532226562 777.856445312 233.532226562 771.099609375 c 2
 233.532226562 741.868164062 l 1
 256.577148438 760.6484375 292.657226562 778.975585938 314.134765625 778.975585938 c 2
 777.978515625 778.975585938 l 1
 788.227539062 775.975585938 l 1
 973.766601562 590.442382812 l 1
 975.678710938 585.56640625 l 1
 975.678710938 28.953125 l 2
 975.678710938 7.548828125 906.899414062 -36.8291015625 873.478515625 -36.8291015625 c 0
 868.630859375 -36.8291015625 861.317382812 -35.7099609375 861.317382812 -28.953125 c 2
 861.317382812 0.283203125 l 1
 838.272460938 -18.4990234375 802.188476562 -36.8291015625 780.708984375 -36.8291015625 c 2
 224.095703125 -36.8291015625 l 2
 219.248046875 -36.8291015625 211.934570312 -35.7099609375 211.934570312 -28.953125 c 0
 211.934570312 -7.548828125 280.713867188 36.8291015625 314.134765625 36.8291015625 c 2
 861.317382812 36.8291015625 l 1
 861.317382812 524.697265625 l 1
 680.69140625 705.317382812 l 1
 233.532226562 705.317382812 l 1
 233.532226562 407.903320312 l 1
 499.673828125 407.903320312 l 2
 504.521484375 407.903320312 511.834960938 406.784179688 511.834960938 400.02734375 c 0
 511.834960938 378.623046875 443.055664062 334.245117188 409.634765625 334.245117188 c 2
 233.532226562 334.245117188 l 1
 233.532226562 28.953125 l 2
 233.532226562 7.548828125 164.752929688 -36.8291015625 131.33203125 -36.8291015625 c 0
EndSplineSet
Validated: 524289
EndChar

StartChar: Emacron
Encoding: 260 274 11
Width: 953
Flags: W
HStem: -36.8291 73.6582<158.981 856.45> 287.61 73.6582<180.905 670.917> 612.554 73.6582<89.2978 856.45> 798.089 73.6582<182.067 763.681>
VStem: 44.6201 114.361<36.8291 287.61 324.156 556.512>
AnchorPoint: "Anchora 1" 484 981 basechar 0
LayerCount: 2
Back
SplineSet
194.5703125 324.439453125 m 5
 658.4140625 324.439453125 l 1029
101.80078125 556.61328125 m 5
 101.80078125 0 l 5
 843.947265625 0 l 1029
101.80078125 649.3828125 m 5
 843.947265625 649.3828125 l 1029
194.5703125 834.91796875 m 5
 751.177734375 834.91796875 l 1029
EndSplineSet
Fore
SplineSet
808.358398438 863.87109375 m 0
 808.358398438 842.466796875 739.579101562 798.088867188 706.158203125 798.088867188 c 2
 149.55078125 798.088867188 l 2
 144.703125 798.088867188 137.389648438 799.208007812 137.389648438 805.96484375 c 0
 137.389648438 827.369140625 206.168945312 871.747070312 239.58984375 871.747070312 c 2
 796.197265625 871.747070312 l 2
 801.044921875 871.747070312 808.358398438 870.627929688 808.358398438 863.87109375 c 0
901.127929688 678.3359375 m 0
 901.127929688 656.931640625 832.348632812 612.553710938 798.927734375 612.553710938 c 2
 56.78125 612.553710938 l 2
 51.93359375 612.553710938 44.6201171875 613.672851562 44.6201171875 620.4296875 c 0
 44.6201171875 641.833984375 113.399414062 686.211914062 146.8203125 686.211914062 c 2
 888.966796875 686.211914062 l 2
 893.814453125 686.211914062 901.127929688 685.092773438 901.127929688 678.3359375 c 0
901.127929688 28.953125 m 0
 901.127929688 7.548828125 832.348632812 -36.8291015625 798.927734375 -36.8291015625 c 2
 56.78125 -36.8291015625 l 1
 44.6201171875 -28.953125 l 1
 44.6201171875 527.66015625 l 2
 44.6201171875 549.064453125 113.399414062 593.442382812 146.8203125 593.442382812 c 0
 151.66796875 593.442382812 158.981445312 592.323242188 158.981445312 585.56640625 c 2
 158.981445312 324.15625 l 1
 182.026367188 342.938476562 218.110351562 361.268554688 239.58984375 361.268554688 c 2
 703.43359375 361.268554688 l 2
 708.28125 361.268554688 715.594726562 360.149414062 715.594726562 353.392578125 c 0
 715.594726562 331.98828125 646.815429688 287.610351562 613.39453125 287.610351562 c 2
 158.981445312 287.610351562 l 1
 158.981445312 36.8291015625 l 1
 888.966796875 36.8291015625 l 2
 893.814453125 36.8291015625 901.127929688 35.7099609375 901.127929688 28.953125 c 0
EndSplineSet
Validated: 524289
EndChar

StartChar: Imacron
Encoding: 262 298 13
Width: 926
Flags: W
HStem: -36.8291 73.6582<77.7236 844.878> 612.555 73.6582<77.7236 844.878> 798.089 73.6582<170.487 752.108>
VStem: 404.12 114.361<92.871 556.512>
LayerCount: 2
Back
SplineSet
90.2265625 0 m 1
 832.375 0 l 1025
461.30078125 556.61328125 m 1
 461.30078125 92.76953125 l 1025
90.2265625 649.383789062 m 1
 832.375 649.383789062 l 1025
182.990234375 834.91796875 m 1
 739.60546875 834.91796875 l 1025
EndSplineSet
Fore
SplineSet
889.555664062 28.953125 m 0
 889.555664062 7.548828125 820.776367188 -36.8291015625 787.35546875 -36.8291015625 c 2
 45.20703125 -36.8291015625 l 2
 40.359375 -36.8291015625 33.0458984375 -35.7099609375 33.0458984375 -28.953125 c 0
 33.0458984375 -7.548828125 101.825195312 36.8291015625 135.24609375 36.8291015625 c 2
 877.39453125 36.8291015625 l 2
 882.2421875 36.8291015625 889.555664062 35.7099609375 889.555664062 28.953125 c 0
416.28125 55.9404296875 m 0
 411.43359375 55.9404296875 404.120117188 57.0595703125 404.120117188 63.81640625 c 2
 404.120117188 527.66015625 l 2
 404.120117188 549.064453125 472.899414062 593.442382812 506.3203125 593.442382812 c 0
 511.16796875 593.442382812 518.481445312 592.323242188 518.481445312 585.56640625 c 2
 518.481445312 121.72265625 l 2
 518.481445312 100.318359375 449.702148438 55.9404296875 416.28125 55.9404296875 c 0
889.555664062 678.336914062 m 0
 889.555664062 656.932617188 820.776367188 612.5546875 787.35546875 612.5546875 c 2
 45.20703125 612.5546875 l 2
 40.359375 612.5546875 33.0458984375 613.673828125 33.0458984375 620.430664062 c 0
 33.0458984375 641.834960938 101.825195312 686.212890625 135.24609375 686.212890625 c 2
 877.39453125 686.212890625 l 2
 882.2421875 686.212890625 889.555664062 685.09375 889.555664062 678.336914062 c 0
796.786132812 863.87109375 m 0
 796.786132812 842.466796875 728.006835938 798.088867188 694.5859375 798.088867188 c 2
 137.970703125 798.088867188 l 2
 133.123046875 798.088867188 125.809570312 799.208007812 125.809570312 805.96484375 c 0
 125.809570312 827.369140625 194.588867188 871.747070312 228.009765625 871.747070312 c 2
 784.625 871.747070312 l 2
 789.47265625 871.747070312 796.786132812 870.627929688 796.786132812 863.87109375 c 0
EndSplineSet
Validated: 524289
EndChar

StartChar: Omacron
Encoding: 264 332 15
Width: 933
Flags: W
HStem: -36.8291 73.6582<201.545 754.59> 631.171 73.6582<179.263 732.308> 798.089 73.6582<175.736 757.356>
VStem: 38.6719 114.361<83.5734 588.497> 780.819 114.361<79.5026 584.427>
LayerCount: 2
Back
SplineSet
86.6962890625 391.697265625 m 2
 86.6962890625 670 86.6962890625 670 365 670 c 2
 550.540039062 670 l 2
 828.84375 670 828.84375 670 828.84375 391.697265625 c 2
 828.84375 305 l 1
 828.84375 278.302734375 l 2
 828.84375 0 828.84375 0 550.540039062 0 c 2
 365 0 l 2
 86.6962890625 0 86.6962890625 0 86.6962890625 278.302734375 c 2
 86.6962890625 311 l 1
 86.6962890625 391.697265625 l 2
179.239257812 834.91796875 m 1
 735.853515625 834.91796875 l 1025
EndSplineSet
Fore
SplineSet
802.034179688 863.87109375 m 0
 802.034179688 842.466796875 733.254882812 798.088867188 699.833984375 798.088867188 c 2
 143.219726562 798.088867188 l 2
 138.372070312 798.088867188 131.05859375 799.208007812 131.05859375 805.96484375 c 0
 131.05859375 827.369140625 199.837890625 871.747070312 233.258789062 871.747070312 c 2
 789.873046875 871.747070312 l 2
 794.720703125 871.747070312 802.034179688 870.627929688 802.034179688 863.87109375 c 0
153.033203125 418.650390625 m 2
 153.033203125 307.255859375 l 2
 153.033203125 186.788085938 153.63671875 119.77734375 174.544921875 83.5625 c 0
 201.34375 37.1455078125 259.84375 36.8291015625 419.17578125 36.8291015625 c 2
 604.715820312 36.8291015625 l 2
 690.788085938 36.8291015625 731.305664062 37.171875 766.383789062 41.673828125 c 1
 780.700195312 79.62109375 780.819335938 145.50390625 780.819335938 249.349609375 c 2
 780.819335938 360.744140625 l 2
 780.819335938 481.211914062 780.215820312 548.22265625 759.307617188 584.4375 c 0
 732.508789062 630.854492188 674.008789062 631.170898438 514.676757812 631.170898438 c 2
 329.13671875 631.170898438 l 2
 243.064453125 631.170898438 202.546875 630.828125 167.46875 626.326171875 c 1
 153.15234375 588.37890625 153.033203125 522.49609375 153.033203125 418.650390625 c 2
38.671875 365.328125 m 2
 38.671875 521.887695312 39.900390625 575.143554688 81.6630859375 620.280273438 c 0
 87.8408203125 626.958007812 130.0703125 670.345703125 201.703125 690.48046875 c 0
 250.381835938 704.1640625 306.111328125 704.829101562 403.95703125 704.829101562 c 2
 609.97265625 704.829101562 l 2
 763.415039062 704.829101562 840.088867188 704.520507812 871.890625 649.4375 c 0
 894.635742188 610.041992188 895.180664062 545.122070312 895.180664062 435.578125 c 0
 895.180664062 302.671875 895.180664062 302.671875 895.180664062 302.671875 c 2
 895.180664062 146.112304688 893.952148438 92.8564453125 852.189453125 47.7197265625 c 0
 846.01171875 41.0419921875 803.782226562 -2.345703125 732.149414062 -22.48046875 c 0
 683.470703125 -36.1640625 627.741210938 -36.8291015625 529.895507812 -36.8291015625 c 2
 323.879882812 -36.8291015625 l 2
 170.4375 -36.8291015625 93.763671875 -36.5205078125 61.9619140625 18.5625 c 0
 39.216796875 57.9580078125 38.671875 122.877929688 38.671875 232.421875 c 0
 38.671875 365.328125 38.671875 365.328125 38.671875 365.328125 c 2
EndSplineSet
Validated: 524289
EndChar

StartChar: Umacron
Encoding: 266 362 17
Width: 948
Flags: W
HStem: -36.8291 73.6582<157.306 763.168> 798.089 73.6582<180.392 762.011>
VStem: 42.9443 114.361<36.8291 649.277> 785.091 114.361<36.8291 649.277>
LayerCount: 2
Back
SplineSet
842.271484375 649.37890625 m 5
 842.271484375 -2.1376953125 l 1029
100.125 649.37890625 m 5
 100.125 0 l 5
 749.5078125 0 l 1029
192.89453125 834.91796875 m 5
 749.5078125 834.91796875 l 1029
EndSplineSet
Fore
SplineSet
806.688476562 863.87109375 m 0
 806.688476562 842.466796875 737.909179688 798.088867188 704.48828125 798.088867188 c 2
 147.875 798.088867188 l 2
 143.02734375 798.088867188 135.713867188 799.208007812 135.713867188 805.96484375 c 0
 135.713867188 827.369140625 204.493164062 871.747070312 237.9140625 871.747070312 c 2
 794.52734375 871.747070312 l 2
 799.375 871.747070312 806.688476562 870.627929688 806.688476562 863.87109375 c 0
797.251953125 -38.966796875 m 0
 792.404296875 -38.966796875 785.090820312 -37.84765625 785.090820312 -31.0908203125 c 2
 785.090820312 0.2783203125 l 1
 762.045898438 -18.501953125 725.965820312 -36.8291015625 704.48828125 -36.8291015625 c 2
 55.10546875 -36.8291015625 l 2
 50.2578125 -36.8291015625 42.9443359375 -35.7099609375 42.9443359375 -28.953125 c 2
 42.9443359375 620.42578125 l 2
 42.9443359375 641.830078125 111.723632812 686.208007812 145.14453125 686.208007812 c 0
 149.9921875 686.208007812 157.305664062 685.088867188 157.305664062 678.33203125 c 2
 157.305664062 36.8291015625 l 1
 785.090820312 36.8291015625 l 1
 785.090820312 620.42578125 l 2
 785.090820312 641.830078125 853.870117188 686.208007812 887.291015625 686.208007812 c 0
 892.138671875 686.208007812 899.452148438 685.088867188 899.452148438 678.33203125 c 2
 899.452148438 26.8154296875 l 2
 899.452148438 5.4111328125 830.672851562 -38.966796875 797.251953125 -38.966796875 c 0
EndSplineSet
Validated: 524289
EndChar

StartChar: Phi
Encoding: 268 934 19
Width: 929
Flags: W
HStem: 148.712 73.6582<171.743 404.142 518.503 754.749> 519.784 73.6582<170.804 404.142 518.503 775.215>
VStem: 33.0674 114.361<185.642 519.784> 404.142 114.361<-92.6681 148.712 222.37 519.784 593.442 834.816> 775.215 114.361<222.37 519.784>
AnchorPoint: "Anchora 1" 476 949 basechar 0
LayerCount: 2
Back
SplineSet
461.322265625 834.91796875 m 5
 461.322265625 -92.76953125 l 1029
90.248046875 556.61328125 m 5
 832.395507812 556.61328125 l 5
 832.395507812 185.541015625 l 5
 90.248046875 185.541015625 l 5
 90.248046875 556.61328125 l 5
EndSplineSet
Fore
SplineSet
45.228515625 148.711914062 m 0
 40.380859375 148.711914062 33.0673828125 149.831054688 33.0673828125 156.587890625 c 2
 33.0673828125 527.66015625 l 2
 33.0673828125 549.064453125 101.846679688 593.442382812 135.267578125 593.442382812 c 0
 140.115234375 593.442382812 147.428710938 592.323242188 147.428710938 585.56640625 c 2
 147.428710938 555.5234375 l 1
 170.418945312 574.583007812 207.232421875 593.442382812 229.01953125 593.442382812 c 2
 404.141601562 593.442382812 l 1
 404.141601562 805.96484375 l 2
 404.141601562 827.369140625 472.920898438 871.747070312 506.341796875 871.747070312 c 0
 511.189453125 871.747070312 518.502929688 870.627929688 518.502929688 863.87109375 c 2
 518.502929688 593.442382812 l 1
 877.415039062 593.442382812 l 1
 889.576171875 585.56640625 l 1
 889.576171875 214.494140625 l 2
 889.576171875 193.08984375 820.796875 148.711914062 787.375976562 148.711914062 c 0
 782.528320312 148.711914062 775.21484375 149.831054688 775.21484375 156.587890625 c 2
 775.21484375 184.828125 l 1
 752.133789062 166.399414062 716.940429688 148.711914062 695.840820312 148.711914062 c 2
 518.502929688 148.711914062 l 1
 518.502929688 -63.81640625 l 2
 518.502929688 -85.220703125 449.723632812 -129.598632812 416.302734375 -129.598632812 c 0
 411.455078125 -129.598632812 404.141601562 -128.479492188 404.141601562 -121.72265625 c 2
 404.141601562 148.711914062 l 1
 139.2265625 148.711914062 l 2
 134.37890625 148.711914062 127.065429688 149.831054688 127.065429688 156.587890625 c 0
 127.065429688 177.9921875 195.844726562 222.370117188 229.265625 222.370117188 c 2
 404.141601562 222.370117188 l 1
 404.141601562 519.784179688 l 1
 147.428710938 519.784179688 l 1
 147.428710938 214.494140625 l 2
 147.428710938 193.08984375 78.6494140625 148.711914062 45.228515625 148.711914062 c 0
518.502929688 519.784179688 m 1
 518.502929688 222.370117188 l 1
 775.21484375 222.370117188 l 1
 775.21484375 519.784179688 l 1
 518.502929688 519.784179688 l 1
EndSplineSet
Validated: 524289
EndChar

StartChar: F
Encoding: 70 70 20
Width: 994
Flags: W
HStem: -36.8291 21G<78.7373 97.8716> -36.8291 21G<78.7373 97.8716> 334.245 73.6582<205.285 695.297> 705.317 73.6582<113.678 880.836>
VStem: 69 114.361<0.101473 334.245 370.791 649.281>
AnchorPoint: "Anchora 1" 508 891 basechar 0
LayerCount: 2
Back
SplineSet
191.791015625 371.07421875 m 5
 655.634765625 371.07421875 l 1029
99.021484375 649.3828125 m 5
 99.021484375 0 l 1029
99.021484375 742.146484375 m 5
 841.173828125 742.146484375 l 1029
EndSplineSet
Fore
SplineSet
925.513671875 771.099609375 m 0x38
 925.513671875 749.6953125 856.734375 705.317382812 823.313476562 705.317382812 c 2
 81.1611328125 705.317382812 l 2
 76.3134765625 705.317382812 69 706.436523438 69 713.193359375 c 0
 69 734.59765625 137.779296875 778.975585938 171.200195312 778.975585938 c 2
 913.352539062 778.975585938 l 2
 918.200195312 778.975585938 925.513671875 777.856445312 925.513671875 771.099609375 c 0x38
739.974609375 400.02734375 m 0
 739.974609375 378.623046875 671.1953125 334.245117188 637.774414062 334.245117188 c 2
 183.361328125 334.245117188 l 1
 183.361328125 28.953125 l 2
 183.361328125 7.548828125 114.58203125 -36.8291015625 81.1611328125 -36.8291015625 c 0xb8
 76.3134765625 -36.8291015625 69 -35.7099609375 69 -28.953125 c 2
 69 620.4296875 l 2
 69 641.833984375 137.779296875 686.211914062 171.200195312 686.211914062 c 0
 176.047851562 686.211914062 183.361328125 685.092773438 183.361328125 678.3359375 c 2
 183.361328125 370.791015625 l 1
 206.40625 389.573242188 242.490234375 407.903320312 263.969726562 407.903320312 c 2
 727.813476562 407.903320312 l 2
 732.661132812 407.903320312 739.974609375 406.784179688 739.974609375 400.02734375 c 0
EndSplineSet
Validated: 524289
EndChar

StartChar: G
Encoding: 71 71 21
Width: 995
Flags: W
HStem: -36.8291 73.6582<183.361 880.836> 334.245 73.6582<484.751 811.152> 705.317 73.6582<117.663 880.836>
VStem: 69 114.361<36.8291 649.281> 811.152 114.361<92.871 334.245>
LayerCount: 2
Back
SplineSet
473.770507812 371.07421875 m 5
 844.849609375 371.07421875 l 5
 844.849609375 92.76953125 l 1029
102.697265625 649.3828125 m 5
 102.697265625 0 l 5
 844.849609375 0 l 1029
106.682617188 742.146484375 m 5
 844.849609375 742.146484375 l 1029
EndSplineSet
Fore
SplineSet
925.513671875 771.099609375 m 0
 925.513671875 749.6953125 856.734375 705.317382812 823.313476562 705.317382812 c 2
 85.146484375 705.317382812 l 2
 80.298828125 705.317382812 72.9853515625 706.436523438 72.9853515625 713.193359375 c 0
 72.9853515625 734.59765625 141.764648438 778.975585938 175.185546875 778.975585938 c 2
 913.352539062 778.975585938 l 2
 918.200195312 778.975585938 925.513671875 777.856445312 925.513671875 771.099609375 c 0
925.513671875 28.953125 m 0
 925.513671875 7.548828125 856.734375 -36.8291015625 823.313476562 -36.8291015625 c 2
 81.1611328125 -36.8291015625 l 1
 69 -28.953125 l 1
 69 620.4296875 l 2
 69 641.833984375 137.779296875 686.211914062 171.200195312 686.211914062 c 0
 176.047851562 686.211914062 183.361328125 685.092773438 183.361328125 678.3359375 c 2
 183.361328125 36.8291015625 l 1
 913.352539062 36.8291015625 l 2
 918.200195312 36.8291015625 925.513671875 35.7099609375 925.513671875 28.953125 c 0
823.313476562 55.9404296875 m 0
 818.465820312 55.9404296875 811.15234375 57.0595703125 811.15234375 63.81640625 c 2
 811.15234375 334.245117188 l 1
 452.234375 334.245117188 l 2
 447.38671875 334.245117188 440.073242188 335.364257812 440.073242188 342.12109375 c 0
 440.073242188 363.525390625 508.852539062 407.903320312 542.2734375 407.903320312 c 2
 913.352539062 407.903320312 l 1
 925.513671875 400.02734375 l 1
 925.513671875 121.72265625 l 2
 925.513671875 100.318359375 856.734375 55.9404296875 823.313476562 55.9404296875 c 0
EndSplineSet
Validated: 524289
EndChar

StartChar: uni021C
Encoding: 270 540 23
Width: 923
Flags: W
HStem: -36.8291 73.6582<81.4208 756.967> 334.245 73.6582<213.783 778.891> 705.317 73.6582<88.3203 717.06>
VStem: 778.891 114.361<36.8291 334.245>
LayerCount: 2
Back
SplineSet
93.923828125 0 m 5
 743.301757812 0 l 1029
100.823242188 742.146484375 m 5
 836.071289062 742.146484375 l 5
 94.771484375 371.07421875 l 5
 836.071289062 371.07421875 l 5
 836.071289062 0 l 1029
EndSplineSet
Fore
SplineSet
43.642578125 713.193359375 m 0
 43.642578125 734.59765625 112.421875 778.975585938 145.842773438 778.975585938 c 2
 881.090820312 778.975585938 l 1
 835.14453125 718.938476562 l 1
 213.783203125 407.903320312 l 1
 881.090820312 407.903320312 l 1
 893.251953125 400.02734375 l 1
 893.251953125 28.953125 l 2
 893.251953125 7.548828125 824.47265625 -36.8291015625 791.051757812 -36.8291015625 c 0
 786.204101562 -36.8291015625 778.890625 -35.7099609375 778.890625 -28.953125 c 2
 778.890625 0.283203125 l 1
 755.845703125 -18.4990234375 719.76171875 -36.8291015625 698.282226562 -36.8291015625 c 2
 48.904296875 -36.8291015625 l 2
 44.056640625 -36.8291015625 36.7431640625 -35.7099609375 36.7431640625 -28.953125 c 0
 36.7431640625 -7.548828125 105.522460938 36.8291015625 138.943359375 36.8291015625 c 2
 778.890625 36.8291015625 l 1
 778.890625 334.245117188 l 1
 49.751953125 334.245117188 l 1
 95.6982421875 394.282226562 l 1
 717.059570312 705.317382812 l 1
 55.8037109375 705.317382812 l 2
 50.9560546875 705.317382812 43.642578125 706.436523438 43.642578125 713.193359375 c 0
EndSplineSet
Validated: 524289
EndChar

StartChar: uniA7B0
Encoding: 272 42928 25
Width: 937
Flags: W
HStem: -36.8291 21G<141.223 154.985 790.607 809.742> -36.8291 21G<141.223 154.985 790.607 809.742> 334.245 73.6582<335.577 758.947> 758.976 20G<124.206 142.607 866.36 885.494> 758.976 20G<124.206 142.607 866.36 885.494>
VStem: 780.87 114.361<0.101473 371.357 407.903 742.045>
LayerCount: 2
Back
SplineSet
188.666015625 0 m 5
 466.9765625 278.302734375 l 1029
745.28125 371.07421875 m 5
 281.4375 371.07421875 l 5
 95.896484375 742.146484375 l 1029
838.05078125 0 m 5
 838.05078125 742.146484375 l 1029
EndSplineSet
Fore
SplineSet
511.99609375 315.131835938 m 0xa4
 516.84375 315.131835938 524.157226562 314.012695312 524.157226562 307.255859375 c 0
 524.157226562 301.9609375 519.482421875 294.586914062 511.458984375 286.563476562 c 2
 233.1484375 8.2607421875 l 2
 210.065429688 -14.8212890625 166.32421875 -36.8291015625 143.646484375 -36.8291015625 c 0
 138.798828125 -36.8291015625 131.485351562 -35.7099609375 131.485351562 -28.953125 c 0
 131.485351562 -23.658203125 136.16015625 -16.2841796875 144.18359375 -8.2607421875 c 2
 422.494140625 270.041992188 l 2
 445.577148438 293.124023438 489.318359375 315.131835938 511.99609375 315.131835938 c 0xa4
38.7158203125 713.193359375 m 0
 38.7158203125 734.59765625 107.495117188 778.975585938 140.916015625 778.975585938 c 0
 144.297851562 778.975585938 150.283203125 778.482421875 152.366210938 774.315429688 c 2
 335.577148438 407.903320312 l 1
 780.870117188 407.903320312 l 1
 780.870117188 713.193359375 l 2
 780.870117188 734.59765625 849.649414062 778.975585938 883.0703125 778.975585938 c 0xb4
 887.91796875 778.975585938 895.231445312 777.856445312 895.231445312 771.099609375 c 2
 895.231445312 28.953125 l 2
 895.231445312 7.548828125 826.452148438 -36.8291015625 793.03125 -36.8291015625 c 0
 788.18359375 -36.8291015625 780.870117188 -35.7099609375 780.870117188 -28.953125 c 2
 780.870117188 371.357421875 l 1
 757.825195312 352.575195312 721.741210938 334.245117188 700.26171875 334.245117188 c 2
 236.41796875 334.245117188 l 2
 233.036132812 334.245117188 227.05078125 334.73828125 224.967773438 338.905273438 c 2
 39.4267578125 709.977539062 l 2
 38.947265625 710.935546875 38.7158203125 712.012695312 38.7158203125 713.193359375 c 0
EndSplineSet
Validated: 524289
EndChar

StartChar: uni0539
Encoding: 274 1337 27
Width: 933
Flags: W
HStem: -36.8291 73.6582<526.054 760.054> 758.976 20G<126.11 145.244 871.989 880.723> 758.976 20G<126.11 145.244 871.989 880.723>
VStem: 40.6201 114.361<0.101473 342.046 370.839 742.045> 411.692 114.361<36.8291 278.201> 776.103 114.361<36.8291 686.039>
LayerCount: 2
Back
SplineSet
459.873046875 278.302734375 m 5
 459.873046875 0 l 5
 738.177734375 0 l 1029
181.5703125 371.07421875 m 5
 824.283203125 742.146484375 l 5
 824.283203125 0 l 1029
88.80078125 742.146484375 m 5
 88.80078125 0 l 1029
EndSplineSet
Fore
SplineSet
423.853515625 -36.8291015625 m 2xdc
 419.005859375 -36.8291015625 411.692382812 -35.7099609375 411.692382812 -28.953125 c 2
 411.692382812 249.349609375 l 2
 411.692382812 270.75390625 480.471679688 315.131835938 513.892578125 315.131835938 c 0
 518.740234375 315.131835938 526.053710938 314.012695312 526.053710938 307.255859375 c 2
 526.053710938 36.8291015625 l 1
 776.102539062 36.8291015625 l 1
 776.102539062 686.0390625 l 1
 200.5703125 353.75390625 l 2
 183.7734375 344.055664062 167.375 337.61328125 154.981445312 335.250976562 c 1
 154.981445312 28.953125 l 2
 154.981445312 7.548828125 86.2021484375 -36.8291015625 52.78125 -36.8291015625 c 0
 47.93359375 -36.8291015625 40.6201171875 -35.7099609375 40.6201171875 -28.953125 c 2
 40.6201171875 713.193359375 l 2
 40.6201171875 734.59765625 109.399414062 778.975585938 142.8203125 778.975585938 c 0
 147.66796875 778.975585938 154.981445312 777.856445312 154.981445312 771.099609375 c 2
 154.981445312 370.838867188 l 1
 162.182617188 376.770507812 170.873046875 382.795898438 180.5703125 388.39453125 c 2
 823.283203125 759.466796875 l 2
 844.806640625 771.893554688 865.67578125 778.975585938 878.301757812 778.975585938 c 0
 883.14453125 778.975585938 890.463867188 777.857421875 890.463867188 771.099609375 c 0
 890.463867188 771.099609375 890.463867188 688.639648438 890.463867188 578.69140625 c 0
 890.463867188 358.796875 890.463867188 28.953125 890.463867188 28.953125 c 2
 890.463867188 7.548828125 821.684570312 -36.8291015625 788.263671875 -36.8291015625 c 0
 783.416015625 -36.8291015625 776.102539062 -35.7099609375 776.102539062 -28.953125 c 2
 776.102539062 -4.87109375 l 1
 753.211914062 -21.7138671875 721.663085938 -36.8291015625 702.158203125 -36.8291015625 c 2
 423.853515625 -36.8291015625 l 2xdc
EndSplineSet
Validated: 524289
EndChar

StartChar: Eng
Encoding: 276 330 29
Width: 936
Flags: W
HStem: -36.8291 73.6582<450.599 776.993> 758.976 20G<120.331 139.465 862.483 881.617> 758.976 20G<120.331 139.465 862.483 881.617>
VStem: 34.8408 114.361<0.101473 643.763 688.853 742.045> 776.993 114.361<36.8291 371.357 416.447 742.045>
LayerCount: 2
Back
SplineSet
825.173828125 742.146484375 m 5
 825.173828125 0 l 5
 454.1015625 0 l 1029
175.791015625 689.135742188 m 5
 732.404296875 371.07421875 l 1029
83.021484375 742.146484375 m 5
 83.021484375 0 l 1029
EndSplineSet
Fore
SplineSet
47.001953125 -36.8291015625 m 0xd8
 42.154296875 -36.8291015625 34.8408203125 -35.7099609375 34.8408203125 -28.953125 c 2
 34.8408203125 713.193359375 l 2
 34.8408203125 734.59765625 103.620117188 778.975585938 137.041015625 778.975585938 c 0
 141.888671875 778.975585938 149.202148438 777.856445312 149.202148438 771.099609375 c 2
 149.202148438 688.852539062 l 1
 172.247070312 707.634765625 208.331054688 725.96484375 229.810546875 725.96484375 c 0
 233.408203125 725.96484375 236.337890625 725.389648438 238.420898438 724.19921875 c 2
 776.993164062 416.447265625 l 1
 776.993164062 713.193359375 l 2
 776.993164062 734.59765625 845.772460938 778.975585938 879.193359375 778.975585938 c 0
 884.041015625 778.975585938 891.354492188 777.856445312 891.354492188 771.099609375 c 2
 891.354492188 28.953125 l 2
 891.354492188 7.548828125 822.575195312 -36.8291015625 789.154296875 -36.8291015625 c 2
 418.08203125 -36.8291015625 l 2
 413.234375 -36.8291015625 405.920898438 -35.7099609375 405.920898438 -28.953125 c 0
 405.920898438 -7.548828125 474.700195312 36.8291015625 508.12109375 36.8291015625 c 2
 776.993164062 36.8291015625 l 1
 776.993164062 371.357421875 l 1
 753.948242188 352.575195312 717.864257812 334.245117188 696.384765625 334.245117188 c 0
 692.787109375 334.245117188 689.857421875 334.8203125 687.774414062 336.010742188 c 2
 149.202148438 643.762695312 l 1
 149.202148438 28.953125 l 2
 149.202148438 7.548828125 80.4228515625 -36.8291015625 47.001953125 -36.8291015625 c 0xd8
EndSplineSet
Validated: 524289
EndChar

StartChar: uni0222
Encoding: 280 546 31
Width: 997
Flags: W
HStem: -36.8291 73.6582<233.364 786.435> 375.171 73.6582<214.511 766.17> 758.978 20G<155.733 174.868 897.887 917.022> 758.978 20G<155.733 174.868 897.887 917.022>
VStem: 70.2432 114.361<83.5696 334.223 481.147 742.047> 812.397 114.361<77.2124 328.431 442.969 742.047>
AnchorPoint: "Anchora 1" 528 878 basechar 0
LayerCount: 2
Back
SplineSet
869.334960938 742.1484375 m 5
 869.334960938 439 l 1029
127.180664062 742.1484375 m 5
 127.180664062 618 l 5
 128.59765625 576.146484375 l 5
 134.67578125 412 135.786132812 412 369.180664062 412 c 6
 591.272460938 412 l 6
 824.666992188 412 862.329101562 412 868.407226562 247.853515625 c 5
 869.576171875 216.268554688 869.576171875 205.853515625 869.576171875 205.853515625 c 6
 869.576171875 206 l 6
 869.576171875 206 869.576171875 201.142578125 868.639648438 171 c 5
 863.326171875 0 827.87109375 0 591.272460938 0 c 6
 405.732421875 0 l 6
 168.673828125 0 133.541015625 0 128.334960938 172 c 5
 127.428710938 201.92578125 127.428710938 206 127.428710938 206 c 6
 127.428710938 205.853515625 l 6
 127.428710938 205.853515625 127.428710938 216.268554688 128.59765625 247.853515625 c 5
 134.67578125 412 172.180664062 412 405.732421875 412 c 14
 426.180664062 412 l 1053
1125.87695312 205.853515625 m 2
 1125.87695312 205.853515625 1125.87695312 216.268554688 1127.04589844 247.853515625 c 1
 1133.12402344 412 1170.78613281 412 1404.18066406 412 c 2
 1589.72070312 412 l 2
 1823.11523438 412 1860.77734375 412 1866.85546875 247.853515625 c 1
 1868.02441406 216.268554688 1868.02441406 205.853515625 1868.02441406 205.853515625 c 2
 1868.02441406 206 l 2
 1868.02441406 206 1868.02441406 201.142578125 1867.08789062 171 c 1
 1861.77441406 0 1826.31933594 0 1589.72070312 0 c 2
 1404.18066406 0 l 2
 1167.12207031 0 1131.98925781 0 1126.78320312 172 c 1
 1125.87695312 201.92578125 1125.87695312 206 1125.87695312 206 c 2
 1125.87695312 205.853515625 l 2
1867.78320312 742.1484375 m 1
 1867.78320312 412 l 1025
1125.62890625 742.1484375 m 1
 1125.62890625 412 l 1
 1775.01367188 412 l 1025
EndSplineSet
Fore
SplineSet
172.443359375 778.977539062 m 0xec
 177.291992188 778.977539062 184.604492188 777.858398438 184.604492188 771.1015625 c 2
 184.604492188 647.103515625 l 2
 188.154296875 542.249023438 189.342773438 507.150390625 202.877929688 483.708007812 c 0
 222.665039062 449.434570312 267.9765625 448.829101562 414.443359375 448.829101562 c 0
 641.791992188 448.829101562 641.791992188 448.829101562 641.791992188 448.829101562 c 2
 714.965820312 448.829101562 770.680664062 448.758789062 812.397460938 442.711914062 c 1
 812.397460938 713.1953125 l 2
 812.397460938 734.599609375 881.176757812 778.977539062 914.59765625 778.977539062 c 0
 919.446289062 778.977539062 926.758789062 777.858398438 926.758789062 771.1015625 c 2
 926.758789062 467.953125 l 2
 926.758789062 455.614257812 903.901367188 435.639648438 878.13671875 420.93359375 c 1
 888.741210938 413.766601562 897.173828125 404.758789062 903.7109375 393.4375 c 0
 918.719726562 367.440429688 923.853515625 330.383789062 925.825195312 277.130859375 c 0
 926.899414062 248.102539062 926.9921875 236.862304688 927 235.068359375 c 0
 927 235.030273438 927 234.9921875 927 234.953125 c 2
 927 234.806640625 l 2
 927 234.748046875 926.999023438 234.688476562 926.999023438 234.62890625 c 0
 925.9375 110.887695312 910.872070312 82.0654296875 893.28515625 58.7724609375 c 0
 873.780273438 32.939453125 826.590820312 -4.87890625 763.96875 -22.48046875 c 0
 715.290039062 -36.1640625 659.560546875 -36.8291015625 561.71484375 -36.8291015625 c 2
 355.69921875 -36.8291015625 l 2
 202.256835938 -36.8291015625 125.583007812 -36.5205078125 93.78125 18.5625 c 0
 78.0439453125 45.8193359375 73.142578125 85.2373046875 71.400390625 142.780273438 c 0
 70.6103515625 168.8828125 70.5068359375 175.30859375 70.4931640625 176.708007812 c 0
 70.4931640625 176.771484375 70.4912109375 176.8359375 70.4912109375 176.900390625 c 2
 70.4912109375 177.046875 l 2
 70.4912109375 177.084960938 70.4912109375 177.124023438 70.4912109375 177.162109375 c 0
 70.6171875 205.731445312 72.0869140625 269.935546875 82.0634765625 306.852539062 c 0
 87.8984375 328.447265625 97.4365234375 354.5234375 137.186523438 385.712890625 c 1
 77 402.806640625 75.435546875 445.073242188 71.666015625 546.869140625 c 2
 70.2431640625 588.749023438 l 1
 70.2431640625 713.1953125 l 2
 70.2431640625 734.599609375 139.022460938 778.977539062 172.443359375 778.977539062 c 0xec
450.995117188 36.8291015625 m 2
 636.53515625 36.8291015625 l 2
 722.603515625 36.8291015625 763.116210938 37.171875 798.19140625 41.671875 c 1
 805.140625 60.05078125 810.005859375 87.6171875 811.706054688 142.333007812 c 0
 812.58984375 170.77734375 812.638671875 176.4140625 812.638671875 176.993164062 c 0
 812.635742188 178.068359375 812.58203125 188.67578125 811.475585938 218.576171875 c 0
 809.52734375 271.172851562 804.17578125 305.837890625 791.126953125 328.4375 c 0
 764.328125 374.854492188 705.828125 375.170898438 546.497070312 375.170898438 c 2
 360.95703125 375.170898438 l 2
 274.875976562 375.170898438 234.353515625 374.829101562 199.279296875 370.333984375 c 1
 191.321289062 349.293945312 187.578125 318.669921875 186.015625 276.46484375 c 0
 184.911132812 246.616210938 184.853515625 236.005859375 184.853515625 234.905273438 c 0
 184.85546875 234.390625 184.901367188 229.409179688 185.754882812 201.219726562 c 0
 187.479492188 144.245117188 192.677734375 107.268554688 206.364257812 83.5625 c 0
 233.163085938 37.1455078125 291.663085938 36.8291015625 450.995117188 36.8291015625 c 2
EndSplineSet
Validated: 524289
LCarets2: 1 0
Ligature2: "'liga' Standard Ligatures lookup 0-1" O U
Ligature2: "'liga' Standard Ligatures lookup 0-1" O u
EndChar

StartChar: Thorn
Encoding: 222 222 32
Width: 956
Flags: W
HStem: 148.712 73.6582<178.578 762.895> 519.784 73.6582<178.578 789.482>
VStem: 42.2939 114.361<-92.6681 148.712 185.263 519.784 556.335 834.816> 789.482 114.361<222.37 519.784>
AnchorPoint: "Anchora 1" 550 807 basechar 0
LayerCount: 2
Back
SplineSet
192.239257812 185.541015625 m 5
 748.853515625 185.541015625 l 1029
192.239257812 556.61328125 m 5
 846.663085938 556.61328125 l 5
 846.663085938 185.541015625 l 1029
99.474609375 834.91796875 m 5
 99.474609375 -92.76953125 l 1029
EndSplineSet
Fore
SplineSet
789.482421875 222.370117188 m 1
 789.482421875 519.784179688 l 1
 156.655273438 519.784179688 l 1
 156.655273438 185.262695312 l 1
 179.700195312 204.041992188 215.780273438 222.370117188 237.258789062 222.370117188 c 2
 789.482421875 222.370117188 l 1
801.643554688 148.711914062 m 0
 796.795898438 148.711914062 789.482421875 149.831054688 789.482421875 156.587890625 c 2
 789.482421875 190.127929688 l 1
 766.99609375 169.94921875 726.954101562 148.711914062 703.833984375 148.711914062 c 2
 156.655273438 148.711914062 l 1
 156.655273438 -63.81640625 l 2
 156.655273438 -85.220703125 87.8759765625 -129.598632812 54.455078125 -129.598632812 c 0
 49.607421875 -129.598632812 42.2939453125 -128.479492188 42.2939453125 -121.72265625 c 2
 42.2939453125 805.96484375 l 2
 42.2939453125 827.369140625 111.073242188 871.747070312 144.494140625 871.747070312 c 0
 149.341796875 871.747070312 156.655273438 870.627929688 156.655273438 863.87109375 c 2
 156.655273438 556.334960938 l 1
 179.700195312 575.114257812 215.780273438 593.442382812 237.258789062 593.442382812 c 2
 891.682617188 593.442382812 l 1
 903.84375 585.56640625 l 1
 903.84375 214.494140625 l 2
 903.84375 193.08984375 835.064453125 148.711914062 801.643554688 148.711914062 c 0
EndSplineSet
Validated: 524289
EndChar

StartChar: H
Encoding: 72 72 33
Width: 996
Flags: W
HStem: -36.8291 21G<78.7373 97.8716 820.891 840.025> -36.8291 21G<78.7373 97.8716 820.891 840.025> 334.245 73.6582<205.285 789.23> 758.976 20G<154.49 173.624 896.643 915.777> 758.976 20G<154.49 173.624 896.643 915.777>
VStem: 69 114.361<0.101473 334.245 370.791 742.045> 811.153 114.361<0.101473 371.357 407.903 742.045>
LayerCount: 2
Back
SplineSet
836.298828125 742.146484375 m 1
 836.298828125 0 l 1025
186.915039062 371.07421875 m 1
 743.529296875 371.07421875 l 1025
94.1455078125 742.146484375 m 1
 94.1455078125 0 l 1025
EndSplineSet
Fore
SplineSet
81.1611328125 -36.8291015625 m 0xb6
 76.3134765625 -36.8291015625 69 -35.7099609375 69 -28.953125 c 2
 69 713.193359375 l 2
 69 734.59765625 137.779296875 778.975585938 171.200195312 778.975585938 c 0
 176.047851562 778.975585938 183.361328125 777.856445312 183.361328125 771.099609375 c 2
 183.361328125 370.791015625 l 1
 206.40625 389.573242188 242.490234375 407.903320312 263.969726562 407.903320312 c 2
 811.153320312 407.903320312 l 1
 811.153320312 713.193359375 l 2
 811.153320312 734.59765625 879.932617188 778.975585938 913.353515625 778.975585938 c 0
 918.201171875 778.975585938 925.514648438 777.856445312 925.514648438 771.099609375 c 2
 925.514648438 28.953125 l 2
 925.514648438 7.548828125 856.735351562 -36.8291015625 823.314453125 -36.8291015625 c 0
 818.466796875 -36.8291015625 811.153320312 -35.7099609375 811.153320312 -28.953125 c 2
 811.153320312 371.357421875 l 1
 788.108398438 352.575195312 752.024414062 334.245117188 730.544921875 334.245117188 c 2
 183.361328125 334.245117188 l 1
 183.361328125 28.953125 l 2
 183.361328125 7.548828125 114.58203125 -36.8291015625 81.1611328125 -36.8291015625 c 0xb6
EndSplineSet
Validated: 524289
EndChar

StartChar: I
Encoding: 73 73 34
Width: 992
Flags: W
HStem: -36.8291 73.6582<111.678 878.831> 705.317 73.6582<111.678 878.831>
VStem: 436.931 114.362<92.871 653.721>
LayerCount: 2
Back
SplineSet
97 0 m 5
 839.146484375 0 l 1029
466.930664062 653.822265625 m 5
 466.930664062 92.76953125 l 1029
97 742.146484375 m 5
 839.146484375 742.146484375 l 1029
EndSplineSet
Fore
SplineSet
923.508789062 28.953125 m 0
 923.508789062 7.548828125 854.729492188 -36.8291015625 821.30859375 -36.8291015625 c 2
 79.162109375 -36.8291015625 l 2
 74.3134765625 -36.8291015625 67 -35.7099609375 67 -28.953125 c 0
 67 -7.548828125 135.779296875 36.8291015625 169.200195312 36.8291015625 c 2
 911.346679688 36.8291015625 l 2
 916.1953125 36.8291015625 923.508789062 35.7099609375 923.508789062 28.953125 c 0
449.092773438 55.9404296875 m 0
 444.244140625 55.9404296875 436.930664062 57.0595703125 436.930664062 63.81640625 c 2
 436.930664062 624.869140625 l 2
 436.930664062 646.2734375 505.709960938 690.651367188 539.130859375 690.651367188 c 0
 543.979492188 690.651367188 551.29296875 689.532226562 551.29296875 682.775390625 c 2
 551.29296875 121.72265625 l 2
 551.29296875 100.318359375 482.513671875 55.9404296875 449.092773438 55.9404296875 c 0
923.508789062 771.099609375 m 0
 923.508789062 749.6953125 854.729492188 705.317382812 821.30859375 705.317382812 c 2
 79.162109375 705.317382812 l 2
 74.3134765625 705.317382812 67 706.436523438 67 713.193359375 c 0
 67 734.59765625 135.779296875 778.975585938 169.200195312 778.975585938 c 2
 911.346679688 778.975585938 l 2
 916.1953125 778.975585938 923.508789062 777.856445312 923.508789062 771.099609375 c 0
EndSplineSet
Validated: 524289
EndChar

StartChar: J
Encoding: 74 74 35
Width: 992
Flags: W
HStem: -36.8291 73.6582<181.361 416.15> 705.317 73.6582<111.678 878.836>
VStem: 67 114.361<36.8291 185.439> 438.072 114.361<36.8291 649.282>
LayerCount: 2
Back
SplineSet
466.521484375 649.383789062 m 5
 466.521484375 0 l 1029
95.44921875 185.540039062 m 5
 95.44921875 0 l 5
 373.7578125 0 l 1029
95.44921875 742.146484375 m 5
 837.6015625 742.146484375 l 1029
EndSplineSet
Fore
SplineSet
450.233398438 -36.8291015625 m 0
 445.385742188 -36.8291015625 438.072265625 -35.7099609375 438.072265625 -28.953125 c 2
 438.072265625 0.2783203125 l 1
 415.02734375 -18.501953125 378.947265625 -36.8291015625 357.469726562 -36.8291015625 c 2
 79.1611328125 -36.8291015625 l 2
 74.3134765625 -36.8291015625 67 -35.7099609375 67 -28.953125 c 2
 67 156.586914062 l 2
 67 177.991210938 135.779296875 222.369140625 169.200195312 222.369140625 c 0
 174.047851562 222.369140625 181.361328125 221.25 181.361328125 214.493164062 c 2
 181.361328125 36.8291015625 l 1
 438.072265625 36.8291015625 l 1
 438.072265625 620.430664062 l 2
 438.072265625 641.834960938 506.8515625 686.212890625 540.272460938 686.212890625 c 0
 545.120117188 686.212890625 552.43359375 685.09375 552.43359375 678.336914062 c 2
 552.43359375 28.953125 l 2
 552.43359375 7.548828125 483.654296875 -36.8291015625 450.233398438 -36.8291015625 c 0
923.513671875 771.099609375 m 0
 923.513671875 749.6953125 854.734375 705.317382812 821.313476562 705.317382812 c 2
 79.1611328125 705.317382812 l 2
 74.3134765625 705.317382812 67 706.436523438 67 713.193359375 c 0
 67 734.59765625 135.779296875 778.975585938 169.200195312 778.975585938 c 2
 911.352539062 778.975585938 l 2
 916.200195312 778.975585938 923.513671875 777.856445312 923.513671875 771.099609375 c 0
EndSplineSet
Validated: 524289
EndChar

StartChar: K
Encoding: 75 75 36
Width: 994
Flags: W
HStem: -36.8291 21G<78.7373 97.8716 821.617 840.018> -36.8291 21G<78.7373 97.8716 821.617 840.018> 334.245 73.6582<205.285 628.654> 758.976 20G<154.49 173.624 809.238 823.001> 758.976 20G<154.49 173.624 809.238 823.001>
VStem: 69 114.361<0.101473 334.245 370.791 742.045>
LayerCount: 2
Back
SplineSet
742.052734375 742.146484375 m 5
 463.75 463.84375 l 1029
185.4453125 371.07421875 m 5
 649.2890625 371.07421875 l 5
 834.822265625 0 l 1029
92.67578125 742.146484375 m 5
 92.67578125 0 l 1029
EndSplineSet
Fore
SplineSet
452.235351562 427.014648438 m 0x34
 447.387695312 427.014648438 440.07421875 428.133789062 440.07421875 434.890625 c 0
 440.07421875 440.185546875 444.748046875 447.55859375 452.771484375 455.58203125 c 2
 731.07421875 733.884765625 l 2
 754.15625 756.966796875 797.899414062 778.975585938 820.577148438 778.975585938 c 0
 825.424804688 778.975585938 832.73828125 777.856445312 832.73828125 771.099609375 c 0
 832.73828125 765.8046875 828.064453125 758.431640625 820.041015625 750.408203125 c 2
 541.73828125 472.10546875 l 2
 518.65625 449.0234375 474.913085938 427.014648438 452.235351562 427.014648438 c 0x34
81.1611328125 -36.8291015625 m 0xb4
 76.3134765625 -36.8291015625 69 -35.7099609375 69 -28.953125 c 2
 69 713.193359375 l 2
 69 734.59765625 137.779296875 778.975585938 171.200195312 778.975585938 c 0
 176.047851562 778.975585938 183.361328125 777.856445312 183.361328125 771.099609375 c 2
 183.361328125 370.791015625 l 1
 206.40625 389.573242188 242.490234375 407.903320312 263.969726562 407.903320312 c 2
 727.813476562 407.903320312 l 2
 731.1953125 407.903320312 737.180664062 407.41015625 739.263671875 403.243164062 c 2
 924.796875 32.1689453125 l 2
 925.276367188 31.2109375 925.5078125 30.1337890625 925.5078125 28.953125 c 0
 925.5078125 7.548828125 856.728515625 -36.8291015625 823.307617188 -36.8291015625 c 0
 819.92578125 -36.8291015625 813.940429688 -36.3359375 811.857421875 -32.1689453125 c 2
 628.654296875 334.245117188 l 1
 183.361328125 334.245117188 l 1
 183.361328125 28.953125 l 2
 183.361328125 7.548828125 114.58203125 -36.8291015625 81.1611328125 -36.8291015625 c 0xb4
EndSplineSet
Validated: 524289
EndChar

StartChar: L
Encoding: 76 76 37
Width: 994
Flags: W
HStem: -36.8291 73.6582<183.361 880.83> 758.976 20G<154.49 173.624> 758.976 20G<154.49 173.624>
VStem: 69 114.361<36.8291 742.045>
LayerCount: 2
Back
SplineSet
96.125 742.146484375 m 1
 96.125 0 l 1
 838.271484375 0 l 1025
EndSplineSet
Fore
SplineSet
81.1611328125 -36.8291015625 m 2xd0
 76.3134765625 -36.8291015625 69 -35.7099609375 69 -28.953125 c 2
 69 713.193359375 l 2
 69 734.59765625 137.779296875 778.975585938 171.200195312 778.975585938 c 0
 176.047851562 778.975585938 183.361328125 777.856445312 183.361328125 771.099609375 c 2
 183.361328125 36.8291015625 l 1
 913.346679688 36.8291015625 l 2
 918.194335938 36.8291015625 925.5078125 35.7099609375 925.5078125 28.953125 c 0
 925.5078125 7.548828125 856.728515625 -36.8291015625 823.307617188 -36.8291015625 c 2
 81.1611328125 -36.8291015625 l 2xd0
EndSplineSet
Validated: 524289
EndChar

StartChar: M
Encoding: 77 77 38
Width: 996
Flags: W
HStem: -36.8291 21G<78.7373 97.8716 820.884 840.018> -36.8291 21G<78.7373 97.8716 820.884 840.018> 758.976 20G<154.49 173.624 896.636 915.771> 758.976 20G<154.49 173.624 896.636 915.771>
VStem: 69 114.361<0.101473 595.93 649.105 742.045> 811.146 114.361<0.101473 648.751 678.727 742.045>
LayerCount: 2
Back
SplineSet
183.115234375 649.383789062 m 5
 461.42578125 371.07421875 l 5
 739.728515625 649.383789062 l 1029
832.498046875 742.146484375 m 5
 832.498046875 0 l 1029
90.3515625 742.146484375 m 5
 90.3515625 0 l 1029
EndSplineSet
Fore
SplineSet
823.307617188 -36.8291015625 m 0xac
 818.459960938 -36.8291015625 811.146484375 -35.7099609375 811.146484375 -28.953125 c 2
 811.146484375 648.750976562 l 1
 541.739257812 379.336914062 l 2
 518.657226562 356.254882812 474.9140625 334.245117188 452.235351562 334.245117188 c 0
 447.561523438 334.245117188 444.016601562 335.215820312 441.986328125 337.245117188 c 0
 279.663085938 499.567382812 211.80859375 567.421875 183.361328125 595.9296875 c 1
 183.361328125 28.953125 l 2
 183.361328125 7.548828125 114.58203125 -36.8291015625 81.1611328125 -36.8291015625 c 0
 76.3134765625 -36.8291015625 69 -35.7099609375 69 -28.953125 c 2
 69 713.193359375 l 2
 69 734.59765625 137.779296875 778.975585938 171.200195312 778.975585938 c 0
 176.047851562 778.975585938 183.361328125 777.856445312 183.361328125 771.099609375 c 2
 183.361328125 649.10546875 l 1
 206.40625 667.885742188 242.486328125 686.212890625 263.963867188 686.212890625 c 0
 268.637695312 686.212890625 272.182617188 685.2421875 274.212890625 683.212890625 c 2
 523.69140625 433.734375 l 1
 731.073242188 641.12109375 l 2
 751.263671875 661.3125 787.264648438 680.682617188 811.146484375 685.21875 c 1
 811.146484375 713.193359375 l 2
 811.146484375 734.59765625 879.92578125 778.975585938 913.346679688 778.975585938 c 0
 918.194335938 778.975585938 925.5078125 777.856445312 925.5078125 771.099609375 c 2
 925.5078125 28.953125 l 2
 925.5078125 7.548828125 856.728515625 -36.8291015625 823.307617188 -36.8291015625 c 0xac
EndSplineSet
Validated: 524289
EndChar

StartChar: N
Encoding: 78 78 39
Width: 996
Flags: W
HStem: -36.8291 21G<78.7373 97.8716 820.892 840.026> -36.8291 21G<78.7373 97.8716 820.892 840.026> 758.976 20G<154.49 173.624 896.644 915.778> 758.976 20G<154.49 173.624 896.644 915.778>
VStem: 69 114.361<0.101473 595.966 649.101 742.045> 811.154 114.361<0.101473 93.0527 146.188 742.045>
LayerCount: 2
Back
SplineSet
832.7265625 742.146484375 m 5
 832.7265625 0 l 1029
183.341796875 649.383789062 m 5
 739.95703125 92.76953125 l 1029
90.572265625 742.146484375 m 5
 90.572265625 0 l 1029
EndSplineSet
Fore
SplineSet
81.1611328125 -36.8291015625 m 0xac
 76.3134765625 -36.8291015625 69 -35.7099609375 69 -28.953125 c 2
 69 713.193359375 l 2
 69 734.59765625 137.779296875 778.975585938 171.200195312 778.975585938 c 0
 176.047851562 778.975585938 183.361328125 777.856445312 183.361328125 771.099609375 c 2
 183.361328125 649.100585938 l 1
 206.40625 667.8828125 242.490234375 686.212890625 263.969726562 686.212890625 c 0
 268.643554688 686.212890625 272.188476562 685.2421875 274.21875 683.212890625 c 0
 646.384765625 311.046875 769.982421875 187.44921875 811.154296875 146.1875 c 1
 811.154296875 713.193359375 l 2
 811.154296875 734.59765625 879.93359375 778.975585938 913.354492188 778.975585938 c 0
 918.202148438 778.975585938 925.515625 777.856445312 925.515625 771.099609375 c 2
 925.515625 28.953125 l 2
 925.515625 7.548828125 856.736328125 -36.8291015625 823.315429688 -36.8291015625 c 0
 818.467773438 -36.8291015625 811.154296875 -35.7099609375 811.154296875 -28.953125 c 2
 811.154296875 93.052734375 l 1
 788.109375 74.2705078125 752.025390625 55.9404296875 730.545898438 55.9404296875 c 0
 725.872070312 55.9404296875 722.327148438 56.9111328125 720.296875 58.9404296875 c 0
 348.130859375 431.106445312 224.533203125 554.704101562 183.361328125 595.965820312 c 1
 183.361328125 28.953125 l 2
 183.361328125 7.548828125 114.58203125 -36.8291015625 81.1611328125 -36.8291015625 c 0xac
EndSplineSet
Validated: 524289
EndChar

StartChar: O
Encoding: 79 79 40
Width: 995
Flags: W
HStem: -36.8291 73.6582<230.873 783.918> 705.317 73.6582<208.591 761.636>
VStem: 68 114.361<83.5734 662.644> 810.147 114.361<79.5026 658.573>
AnchorPoint: "Anchora 1" 518 878 basechar 0
LayerCount: 2
Back
SplineSet
89.248046875 463.84375 m 2
 89.248046875 742.146484375 89.248046875 742.146484375 367.551757812 742.146484375 c 2
 553.091796875 742.146484375 l 2
 831.395507812 742.146484375 831.395507812 742.146484375 831.395507812 463.84375 c 2
 831.395507812 278.302734375 l 2
 831.395507812 0 831.395507812 0 553.091796875 0 c 2
 367.551757812 0 l 2
 89.248046875 0 89.248046875 0 89.248046875 278.302734375 c 2
 89.248046875 463.84375 l 2
EndSplineSet
Fore
SplineSet
68 439.474609375 m 2
 68 596.034179688 69.228515625 649.290039062 110.991210938 694.426757812 c 0
 117.168945312 701.104492188 159.3984375 744.4921875 231.03125 764.626953125 c 0
 279.709960938 778.310546875 335.439453125 778.975585938 433.28515625 778.975585938 c 2
 639.30078125 778.975585938 l 2
 792.743164062 778.975585938 869.416992188 778.666992188 901.21875 723.583984375 c 0
 923.963867188 684.188476562 924.508789062 619.268554688 924.508789062 509.724609375 c 0
 924.508789062 302.671875 924.508789062 302.671875 924.508789062 302.671875 c 2
 924.508789062 146.112304688 923.280273438 92.8564453125 881.517578125 47.7197265625 c 0
 875.33984375 41.0419921875 833.110351562 -2.345703125 761.477539062 -22.48046875 c 0
 712.798828125 -36.1640625 657.069335938 -36.8291015625 559.223632812 -36.8291015625 c 2
 353.208007812 -36.8291015625 l 2
 199.765625 -36.8291015625 123.091796875 -36.5205078125 91.2900390625 18.5625 c 0
 68.544921875 57.9580078125 68 122.877929688 68 232.421875 c 0
 68 439.474609375 68 439.474609375 68 439.474609375 c 2
182.361328125 492.796875 m 2
 182.361328125 307.255859375 l 2
 182.361328125 186.788085938 182.96484375 119.77734375 203.873046875 83.5625 c 0
 230.671875 37.1455078125 289.171875 36.8291015625 448.50390625 36.8291015625 c 2
 634.043945312 36.8291015625 l 2
 720.116210938 36.8291015625 760.633789062 37.171875 795.711914062 41.673828125 c 1
 810.028320312 79.62109375 810.147460938 145.50390625 810.147460938 249.349609375 c 2
 810.147460938 434.890625 l 2
 810.147460938 555.358398438 809.543945312 622.369140625 788.635742188 658.583984375 c 0
 761.836914062 705.000976562 703.336914062 705.317382812 544.004882812 705.317382812 c 2
 358.46484375 705.317382812 l 2
 272.392578125 705.317382812 231.875 704.974609375 196.796875 700.47265625 c 1
 182.48046875 662.525390625 182.361328125 596.642578125 182.361328125 492.796875 c 2
EndSplineSet
Validated: 524289
EndChar

StartChar: P
Encoding: 80 80 41
Width: 996
Flags: W
HStem: -36.8291 21G<78.7373 97.8716> -36.8291 21G<78.7373 97.8716> 241.474 73.6582<205.285 789.229> 705.317 73.6582<205.285 811.152>
VStem: 69 114.361<0.101473 241.474 278.02 705.317> 811.152 114.361<315.132 705.317>
LayerCount: 2
Back
SplineSet
173.466796875 278.302734375 m 5
 730.080078125 278.302734375 l 1029
173.466796875 742.146484375 m 5
 822.849609375 742.146484375 l 5
 822.849609375 278.302734375 l 1029
80.697265625 742.146484375 m 5
 80.697265625 0 l 1029
EndSplineSet
Fore
SplineSet
823.313476562 241.473632812 m 0xbc
 818.465820312 241.473632812 811.15234375 242.592773438 811.15234375 249.349609375 c 2
 811.15234375 278.5859375 l 1
 788.107421875 259.803710938 752.0234375 241.473632812 730.543945312 241.473632812 c 2
 183.361328125 241.473632812 l 1
 183.361328125 28.953125 l 2
 183.361328125 7.548828125 114.58203125 -36.8291015625 81.1611328125 -36.8291015625 c 0
 76.3134765625 -36.8291015625 69 -35.7099609375 69 -28.953125 c 2
 69 713.193359375 l 2
 69 734.59765625 137.779296875 778.975585938 171.200195312 778.975585938 c 0
 176.047851562 778.975585938 183.361328125 777.856445312 183.361328125 771.099609375 c 2
 183.361328125 741.86328125 l 1
 206.40625 760.645507812 242.490234375 778.975585938 263.969726562 778.975585938 c 2
 913.352539062 778.975585938 l 2
 918.200195312 778.975585938 925.513671875 777.856445312 925.513671875 771.099609375 c 2
 925.513671875 307.255859375 l 2
 925.513671875 285.8515625 856.734375 241.473632812 823.313476562 241.473632812 c 0xbc
811.15234375 315.131835938 m 1
 811.15234375 705.317382812 l 1
 183.361328125 705.317382812 l 1
 183.361328125 278.01953125 l 1
 206.40625 296.801757812 242.490234375 315.131835938 263.969726562 315.131835938 c 2
 811.15234375 315.131835938 l 1
EndSplineSet
Validated: 524289
EndChar

StartChar: Q
Encoding: 81 81 42
Width: 996
Flags: W
HStem: 55.9404 73.6582<183.361 440.074 554.436 880.831> 705.317 73.6582<205.285 811.147>
VStem: 69 114.361<129.599 705.317> 440.074 114.361<-92.6681 55.9404 129.599 370.973> 811.147 114.361<185.642 705.317>
LayerCount: 2
Back
SplineSet
454.998046875 371.07421875 m 5
 454.998046875 -92.76953125 l 1029
176.693359375 742.146484375 m 5
 826.071289062 742.146484375 l 5
 826.071289062 185.540039062 l 1029
83.923828125 742.146484375 m 5
 83.923828125 92.76953125 l 5
 826.071289062 92.76953125 l 1029
EndSplineSet
Fore
SplineSet
81.1611328125 55.9404296875 m 2
 76.3134765625 55.9404296875 69 57.0595703125 69 63.81640625 c 2
 69 713.193359375 l 2
 69 734.59765625 137.779296875 778.975585938 171.200195312 778.975585938 c 0
 176.047851562 778.975585938 183.361328125 777.856445312 183.361328125 771.099609375 c 2
 183.361328125 741.86328125 l 1
 206.40625 760.645507812 242.490234375 778.975585938 263.969726562 778.975585938 c 2
 913.34765625 778.975585938 l 2
 918.1953125 778.975585938 925.508789062 777.856445312 925.508789062 771.099609375 c 2
 925.508789062 214.493164062 l 2
 925.508789062 193.088867188 856.729492188 148.7109375 823.30859375 148.7109375 c 0
 818.4609375 148.7109375 811.147460938 149.830078125 811.147460938 156.586914062 c 2
 811.147460938 705.317382812 l 1
 183.361328125 705.317382812 l 1
 183.361328125 129.598632812 l 1
 440.07421875 129.598632812 l 1
 440.07421875 342.12109375 l 2
 440.07421875 363.525390625 508.853515625 407.903320312 542.274414062 407.903320312 c 0
 547.122070312 407.903320312 554.435546875 406.784179688 554.435546875 400.02734375 c 2
 554.435546875 129.598632812 l 1
 913.34765625 129.598632812 l 2
 918.1953125 129.598632812 925.508789062 128.479492188 925.508789062 121.72265625 c 0
 925.508789062 100.318359375 856.729492188 55.9404296875 823.30859375 55.9404296875 c 2
 554.435546875 55.9404296875 l 1
 554.435546875 -63.81640625 l 2
 554.435546875 -85.220703125 485.65625 -129.598632812 452.235351562 -129.598632812 c 0
 447.387695312 -129.598632812 440.07421875 -128.479492188 440.07421875 -121.72265625 c 2
 440.07421875 55.9404296875 l 1
 81.1611328125 55.9404296875 l 2
EndSplineSet
Validated: 524289
EndChar

StartChar: R
Encoding: 82 82 43
Width: 995
Flags: W
HStem: -36.8291 21G<78.7373 97.8716 820.978 840.025> -36.8291 21G<78.7373 97.8716 820.978 840.025> 334.245 73.6582<205.285 789.23> 705.317 73.6582<205.285 811.153>
VStem: 69 114.361<0.101473 334.245 370.791 705.317> 811.153 114.361<407.903 705.317>
LayerCount: 2
Back
SplineSet
547.989257812 278.302734375 m 5
 826.298828125 0 l 1029
176.915039062 371.07421875 m 5
 733.529296875 371.07421875 l 1029
176.915039062 742.146484375 m 5
 826.298828125 742.146484375 l 5
 826.298828125 371.07421875 l 1029
84.1455078125 742.146484375 m 5
 84.1455078125 0 l 1029
EndSplineSet
Fore
SplineSet
534.755859375 244.473632812 m 2xbc
 534.0078125 245.323242188 532.84375 246.645507812 532.84375 249.349609375 c 0
 532.84375 270.75390625 601.623046875 315.131835938 635.043945312 315.131835938 c 0
 639.717773438 315.131835938 643.262695312 314.161132812 645.29296875 312.131835938 c 0
 924.208007812 33.22265625 924.208007812 33.22265625 924.625976562 32.5 c 0
 925.225585938 31.4609375 925.514648438 30.271484375 925.514648438 28.953125 c 0
 925.514648438 7.548828125 856.735351562 -36.8291015625 823.314453125 -36.8291015625 c 0
 818.640625 -36.8291015625 815.095703125 -35.8583984375 813.065429688 -33.8291015625 c 2
 534.755859375 244.473632812 l 2xbc
823.314453125 334.245117188 m 0
 818.466796875 334.245117188 811.153320312 335.364257812 811.153320312 342.12109375 c 2
 811.153320312 371.357421875 l 1
 788.108398438 352.575195312 752.024414062 334.245117188 730.544921875 334.245117188 c 2
 183.361328125 334.245117188 l 1
 183.361328125 28.953125 l 2
 183.361328125 7.548828125 114.58203125 -36.8291015625 81.1611328125 -36.8291015625 c 0
 76.3134765625 -36.8291015625 69 -35.7099609375 69 -28.953125 c 2
 69 713.193359375 l 2
 69 734.59765625 137.779296875 778.975585938 171.200195312 778.975585938 c 0
 176.047851562 778.975585938 183.361328125 777.856445312 183.361328125 771.099609375 c 2
 183.361328125 741.86328125 l 1
 206.40625 760.645507812 242.490234375 778.975585938 263.969726562 778.975585938 c 2
 913.353515625 778.975585938 l 2
 918.201171875 778.975585938 925.514648438 777.856445312 925.514648438 771.099609375 c 2
 925.514648438 400.02734375 l 2
 925.514648438 378.623046875 856.735351562 334.245117188 823.314453125 334.245117188 c 0
811.153320312 407.903320312 m 1
 811.153320312 705.317382812 l 1
 183.361328125 705.317382812 l 1
 183.361328125 370.791015625 l 1
 206.40625 389.573242188 242.490234375 407.903320312 263.969726562 407.903320312 c 2
 811.153320312 407.903320312 l 1
EndSplineSet
Validated: 524289
EndChar

StartChar: S
Encoding: 83 83 44
Width: 995
Flags: W
HStem: -36.8291 73.6582<112.678 788.225> 334.245 73.6582<182.362 810.146> 705.319 73.6582<112.678 879.831>
VStem: 68 114.362<407.903 649.277> 810.146 114.362<36.8291 334.245>
LayerCount: 2
Back
SplineSet
86 0 m 5
 735.3828125 0 l 1029
86 649.37890625 m 5
 86 371.07421875 l 5
 828.146484375 371.07421875 l 5
 828.146484375 0 l 1029
86 742.1484375 m 5
 828.146484375 742.1484375 l 1029
EndSplineSet
Fore
SplineSet
924.508789062 771.1015625 m 0
 924.508789062 749.697265625 855.729492188 705.319335938 822.30859375 705.319335938 c 2
 80.162109375 705.319335938 l 2
 75.3134765625 705.319335938 68 706.438476562 68 713.1953125 c 0
 68 734.599609375 136.779296875 778.977539062 170.200195312 778.977539062 c 2
 912.346679688 778.977539062 l 2
 917.1953125 778.977539062 924.508789062 777.858398438 924.508789062 771.1015625 c 0
80.162109375 334.245117188 m 2
 75.3134765625 334.245117188 68 335.364257812 68 342.12109375 c 2
 68 620.42578125 l 2
 68 641.830078125 136.779296875 686.208007812 170.200195312 686.208007812 c 0
 175.048828125 686.208007812 182.362304688 685.088867188 182.362304688 678.33203125 c 2
 182.362304688 407.903320312 l 1
 912.346679688 407.903320312 l 2
 917.1953125 407.903320312 924.508789062 406.784179688 924.508789062 400.02734375 c 2
 924.508789062 28.953125 l 2
 924.508789062 7.548828125 855.729492188 -36.8291015625 822.30859375 -36.8291015625 c 0
 817.459960938 -36.8291015625 810.146484375 -35.7099609375 810.146484375 -28.953125 c 2
 810.146484375 0.2783203125 l 1
 787.102539062 -18.501953125 751.022460938 -36.8291015625 729.544921875 -36.8291015625 c 2
 80.162109375 -36.8291015625 l 2
 75.3134765625 -36.8291015625 68 -35.7099609375 68 -28.953125 c 0
 68 -7.548828125 136.779296875 36.8291015625 170.200195312 36.8291015625 c 2
 810.146484375 36.8291015625 l 1
 810.146484375 334.245117188 l 1
 80.162109375 334.245117188 l 2
EndSplineSet
Validated: 524289
EndChar

StartChar: glyph48
Encoding: 282 425 45
Width: 940
Flags: W
HStem: -36.8291 73.6582<152.407 849.878> 705.319 73.6582<82.7236 780.194>
VStem: 38.0459 114.361<36.8291 278.203> 780.194 114.361<463.945 705.319>
LayerCount: 2
Back
SplineSet
95.2265625 278.3046875 m 5
 95.2265625 0 l 5
 837.375 0 l 1029
187.990234375 649.37890625 m 5
 744.60546875 92.7705078125 l 1029
95.2265625 742.1484375 m 5
 837.375 742.1484375 l 5
 837.375 463.84375 l 1029
EndSplineSet
Fore
SplineSet
792.35546875 427.014648438 m 0
 787.5078125 427.014648438 780.194335938 428.133789062 780.194335938 434.890625 c 2
 780.194335938 705.319335938 l 1
 50.20703125 705.319335938 l 2
 45.359375 705.319335938 38.0458984375 706.438476562 38.0458984375 713.1953125 c 0
 38.0458984375 734.599609375 106.825195312 778.977539062 140.24609375 778.977539062 c 2
 882.39453125 778.977539062 l 2
 887.2421875 778.977539062 894.555664062 777.858398438 894.555664062 771.1015625 c 2
 894.555664062 492.796875 l 2
 894.555664062 471.392578125 825.776367188 427.014648438 792.35546875 427.014648438 c 0
801.786132812 121.723632812 m 0
 801.786132812 100.319335938 733.006835938 55.94140625 699.5859375 55.94140625 c 0
 694.912109375 55.94140625 691.3671875 56.912109375 689.336914062 58.94140625 c 0
 132.116210938 616.15625 132.116210938 616.15625 131.698242188 616.87890625 c 0
 131.098632812 617.91796875 130.809570312 619.107421875 130.809570312 620.42578125 c 0
 130.809570312 641.830078125 199.588867188 686.208007812 233.009765625 686.208007812 c 0
 237.68359375 686.208007812 241.228515625 685.237304688 243.258789062 683.208007812 c 0
 800.479492188 125.993164062 800.479492188 125.993164062 800.897460938 125.270507812 c 0
 801.497070312 124.231445312 801.786132812 123.041992188 801.786132812 121.723632812 c 0
50.20703125 -36.8291015625 m 2
 45.359375 -36.8291015625 38.0458984375 -35.7099609375 38.0458984375 -28.953125 c 2
 38.0458984375 249.3515625 l 2
 38.0458984375 270.755859375 106.825195312 315.133789062 140.24609375 315.133789062 c 0
 145.09375 315.133789062 152.407226562 314.014648438 152.407226562 307.2578125 c 2
 152.407226562 36.8291015625 l 1
 882.39453125 36.8291015625 l 2
 887.2421875 36.8291015625 894.555664062 35.7099609375 894.555664062 28.953125 c 0
 894.555664062 7.548828125 825.776367188 -36.8291015625 792.35546875 -36.8291015625 c 2
 50.20703125 -36.8291015625 l 2
EndSplineSet
Validated: 524289
EndChar

StartChar: T
Encoding: 84 84 46
Width: 992
Flags: W
HStem: -36.8291 21G<447.81 466.944> -36.8291 21G<447.81 466.944> 705.319 73.6582<111.678 878.836>
VStem: 438.072 114.361<0.101473 649.277>
LayerCount: 2
Back
SplineSet
445.521484375 649.37890625 m 1
 445.521484375 0 l 1025
74.44921875 742.1484375 m 1
 816.6015625 742.1484375 l 1025
EndSplineSet
Fore
SplineSet
923.513671875 771.1015625 m 0x30
 923.513671875 749.697265625 854.734375 705.319335938 821.313476562 705.319335938 c 2
 79.1611328125 705.319335938 l 2
 74.3134765625 705.319335938 67 706.438476562 67 713.1953125 c 0
 67 734.599609375 135.779296875 778.977539062 169.200195312 778.977539062 c 2
 911.352539062 778.977539062 l 2
 916.200195312 778.977539062 923.513671875 777.858398438 923.513671875 771.1015625 c 0x30
450.233398438 -36.8291015625 m 0xb0
 445.385742188 -36.8291015625 438.072265625 -35.7099609375 438.072265625 -28.953125 c 2
 438.072265625 620.42578125 l 2
 438.072265625 641.830078125 506.8515625 686.208007812 540.272460938 686.208007812 c 0
 545.120117188 686.208007812 552.43359375 685.088867188 552.43359375 678.33203125 c 2
 552.43359375 28.953125 l 2
 552.43359375 7.548828125 483.654296875 -36.8291015625 450.233398438 -36.8291015625 c 0xb0
EndSplineSet
Validated: 524289
EndChar

StartChar: glyph50
Encoding: 283 1063 47
Width: 940
Flags: W
HStem: -36.8291 21G<788.379 807.513> -36.8291 21G<788.379 807.513> 241.476 73.6582<150.856 756.718> 758.978 20G<121.985 141.119 864.131 883.266> 758.978 20G<121.985 141.119 864.131 883.266>
VStem: 36.4951 114.361<315.134 742.047> 778.642 114.361<0.101473 278.588 315.134 742.047>
LayerCount: 2
Back
SplineSet
835.822265625 742.1484375 m 5
 835.822265625 0 l 1029
93.67578125 742.1484375 m 5
 93.67578125 278.3046875 l 5
 743.052734375 278.3046875 l 1029
EndSplineSet
Fore
SplineSet
790.802734375 -36.8291015625 m 0xb6
 785.955078125 -36.8291015625 778.641601562 -35.7099609375 778.641601562 -28.953125 c 2
 778.641601562 278.587890625 l 1
 755.596679688 259.805664062 719.512695312 241.475585938 698.033203125 241.475585938 c 2
 48.65625 241.475585938 l 2
 43.80859375 241.475585938 36.4951171875 242.594726562 36.4951171875 249.3515625 c 2
 36.4951171875 713.1953125 l 2
 36.4951171875 734.599609375 105.274414062 778.977539062 138.6953125 778.977539062 c 0
 143.54296875 778.977539062 150.856445312 777.858398438 150.856445312 771.1015625 c 2
 150.856445312 315.133789062 l 1
 778.641601562 315.133789062 l 1
 778.641601562 713.1953125 l 2
 778.641601562 734.599609375 847.420898438 778.977539062 880.841796875 778.977539062 c 0
 885.689453125 778.977539062 893.002929688 777.858398438 893.002929688 771.1015625 c 2
 893.002929688 28.953125 l 2
 893.002929688 7.548828125 824.223632812 -36.8291015625 790.802734375 -36.8291015625 c 0xb6
EndSplineSet
Validated: 524289
EndChar

StartChar: U
Encoding: 85 85 48
Width: 996
Flags: W
HStem: -36.8291 73.6582<183.361 789.231> 758.978 20G<154.49 173.624 896.644 915.778> 758.978 20G<154.49 173.624 896.644 915.778>
VStem: 69 114.361<36.8291 742.047> 811.154 114.361<36.8291 742.047>
AnchorPoint: "Anchora 1" 528 878 basechar 0
LayerCount: 2
Back
SplineSet
842.05078125 742.1484375 m 1
 842.05078125 0 l 1025
99.896484375 742.1484375 m 1
 99.896484375 0 l 1
 749.28125 0 l 1025
EndSplineSet
Fore
SplineSet
81.1611328125 -36.8291015625 m 2xd8
 76.3134765625 -36.8291015625 69 -35.7099609375 69 -28.953125 c 2
 69 713.1953125 l 2
 69 734.599609375 137.779296875 778.977539062 171.200195312 778.977539062 c 0
 176.047851562 778.977539062 183.361328125 777.858398438 183.361328125 771.1015625 c 2
 183.361328125 36.8291015625 l 1
 811.154296875 36.8291015625 l 1
 811.154296875 713.1953125 l 2
 811.154296875 734.599609375 879.93359375 778.977539062 913.354492188 778.977539062 c 0
 918.202148438 778.977539062 925.515625 777.858398438 925.515625 771.1015625 c 2
 925.515625 28.953125 l 2
 925.515625 7.548828125 856.736328125 -36.8291015625 823.315429688 -36.8291015625 c 0
 818.467773438 -36.8291015625 811.154296875 -35.7099609375 811.154296875 -28.953125 c 2
 811.154296875 0.283203125 l 1
 788.109375 -18.4990234375 752.025390625 -36.8291015625 730.545898438 -36.8291015625 c 2
 81.1611328125 -36.8291015625 l 2xd8
EndSplineSet
Validated: 524289
EndChar

StartChar: V
Encoding: 86 86 49
Width: 994
Flags: W
HStem: -36.8291 21G<818.971 838.018> -36.8291 21G<818.971 838.018> 758.978 20G<152.49 171.537 894.636 913.771> 758.978 20G<152.49 171.537 894.636 913.771>
VStem: 809.146 114.361<185.637 742.047>
LayerCount: 2
Back
SplineSet
827.498046875 742.1484375 m 5
 827.498046875 185.53515625 l 1029
85.3515625 742.1484375 m 5
 827.498046875 0 l 1029
EndSplineSet
Fore
SplineSet
923.5078125 28.953125 m 0xa8
 923.5078125 7.548828125 854.728515625 -36.8291015625 821.307617188 -36.8291015625 c 0
 816.633789062 -36.8291015625 813.088867188 -35.8583984375 811.05859375 -33.8291015625 c 0
 68.306640625 708.92578125 68.306640625 708.92578125 67.888671875 709.6484375 c 0
 67.2890625 710.6875 67 711.876953125 67 713.1953125 c 0
 67 734.599609375 135.779296875 778.977539062 169.200195312 778.977539062 c 0
 173.874023438 778.977539062 177.418945312 778.006835938 179.44921875 775.977539062 c 0
 922.201171875 33.22265625 922.201171875 33.22265625 922.619140625 32.5 c 0
 923.21875 31.4609375 923.5078125 30.271484375 923.5078125 28.953125 c 0xa8
821.307617188 148.706054688 m 0
 816.459960938 148.706054688 809.146484375 149.825195312 809.146484375 156.58203125 c 2
 809.146484375 713.1953125 l 2
 809.146484375 734.599609375 877.92578125 778.977539062 911.346679688 778.977539062 c 0
 916.194335938 778.977539062 923.5078125 777.858398438 923.5078125 771.1015625 c 2
 923.5078125 214.48828125 l 2
 923.5078125 193.083984375 854.728515625 148.706054688 821.307617188 148.706054688 c 0
EndSplineSet
Validated: 524289
EndChar

StartChar: W
Encoding: 87 87 50
Width: 996
Flags: W
HStem: -36.8291 73.6582<183.361 418.152 554.436 789.231> 758.978 20G<154.49 173.624 896.644 915.778> 758.978 20G<154.49 173.624 896.644 915.778>
VStem: 69 114.361<36.8291 742.047> 440.074 114.361<36.8291 556.513> 811.154 114.361<36.8291 742.047>
LayerCount: 2
Back
SplineSet
865.2421875 742.1484375 m 5
 865.2421875 0 l 1029
494.162109375 556.614257812 m 5
 494.162109375 0 l 5
 772.47265625 0 l 1029
123.087890625 742.1484375 m 5
 123.087890625 0 l 5
 401.3984375 0 l 1029
EndSplineSet
Fore
SplineSet
823.315429688 -36.8291015625 m 0xdc
 818.467773438 -36.8291015625 811.154296875 -35.7099609375 811.154296875 -28.953125 c 2
 811.154296875 0.283203125 l 1
 788.109375 -18.4990234375 752.025390625 -36.8291015625 730.545898438 -36.8291015625 c 2
 452.235351562 -36.8291015625 l 2
 447.387695312 -36.8291015625 440.07421875 -35.7099609375 440.07421875 -28.953125 c 2
 440.07421875 0.2783203125 l 1
 417.029296875 -18.501953125 380.94921875 -36.8291015625 359.471679688 -36.8291015625 c 2
 81.1611328125 -36.8291015625 l 2
 76.3134765625 -36.8291015625 69 -35.7099609375 69 -28.953125 c 2
 69 713.1953125 l 2
 69 734.599609375 137.779296875 778.977539062 171.200195312 778.977539062 c 0
 176.047851562 778.977539062 183.361328125 777.858398438 183.361328125 771.1015625 c 2
 183.361328125 36.8291015625 l 1
 440.07421875 36.8291015625 l 1
 440.07421875 527.661132812 l 2
 440.07421875 549.065429688 508.853515625 593.443359375 542.274414062 593.443359375 c 0
 547.122070312 593.443359375 554.435546875 592.32421875 554.435546875 585.567382812 c 2
 554.435546875 36.8291015625 l 1
 811.154296875 36.8291015625 l 1
 811.154296875 713.1953125 l 2
 811.154296875 734.599609375 879.93359375 778.977539062 913.354492188 778.977539062 c 0
 918.202148438 778.977539062 925.515625 777.858398438 925.515625 771.1015625 c 2
 925.515625 28.953125 l 2
 925.515625 7.548828125 856.736328125 -36.8291015625 823.315429688 -36.8291015625 c 0xdc
EndSplineSet
Validated: 524289
EndChar

StartChar: X
Encoding: 88 88 51
Width: 994
Flags: W
HStem: -36.8291 21G<77.7373 91.5 819.89 839.024> -36.8291 21G<77.7373 91.5 819.89 839.024> 334.245 73.6582<182.361 423.206 495.648 496.865 569.308 810.152> 758.978 20G<153.49 172.624 901.014 914.776> 758.978 20G<153.49 172.624 901.014 914.776>
VStem: 68 114.361<407.903 742.047> 810.152 114.361<0.101473 334.245>
LayerCount: 2
Back
SplineSet
851.173828125 742.1484375 m 5
 109.021484375 0 l 1029
109.021484375 742.1484375 m 5
 109.021484375 371.07421875 l 5
 851.173828125 371.07421875 l 5
 851.173828125 0 l 1029
EndSplineSet
Fore
SplineSet
80.1611328125 -36.8291015625 m 0xb6
 75.3134765625 -36.8291015625 68 -35.7099609375 68 -28.953125 c 0
 68 -23.658203125 72.673828125 -16.28515625 80.6982421875 -8.26171875 c 2
 423.206054688 334.245117188 l 1
 80.1611328125 334.245117188 l 2
 75.3134765625 334.245117188 68 335.364257812 68 342.12109375 c 2
 68 713.1953125 l 2
 68 734.599609375 136.779296875 778.977539062 170.200195312 778.977539062 c 0
 175.047851562 778.977539062 182.361328125 777.858398438 182.361328125 771.1015625 c 2
 182.361328125 407.903320312 l 1
 496.865234375 407.903320312 l 1
 822.850585938 733.88671875 l 2
 845.931640625 756.96875 889.674804688 778.977539062 912.352539062 778.977539062 c 0
 917.200195312 778.977539062 924.513671875 777.858398438 924.513671875 771.1015625 c 0
 924.513671875 765.806640625 919.83984375 758.43359375 911.815429688 750.41015625 c 2
 569.307617188 407.903320312 l 1
 912.352539062 407.903320312 l 2
 917.200195312 407.903320312 924.513671875 406.784179688 924.513671875 400.02734375 c 2
 924.513671875 28.953125 l 2
 924.513671875 7.548828125 855.734375 -36.8291015625 822.313476562 -36.8291015625 c 0
 817.465820312 -36.8291015625 810.15234375 -35.7099609375 810.15234375 -28.953125 c 2
 810.15234375 334.245117188 l 1
 495.6484375 334.245117188 l 1
 169.663085938 8.26171875 l 2
 146.58203125 -14.8203125 102.838867188 -36.8291015625 80.1611328125 -36.8291015625 c 0xb6
EndSplineSet
Validated: 524289
EndChar

StartChar: Y
Encoding: 89 89 52
Width: 992
Flags: W
HStem: -36.8291 21G<76.7373 90.5> -36.8291 21G<76.7373 90.5> 758.978 20G<152.49 171.537 900.009 913.771> 758.978 20G<152.49 171.537 900.009 913.771>
LayerCount: 2
Back
SplineSet
848.395507812 742.1484375 m 5
 106.248046875 0 l 1029
106.248046875 742.1484375 m 5
 384.551757812 463.84375 l 1029
EndSplineSet
Fore
SplineSet
459.665039062 492.796875 m 0x20
 459.665039062 471.392578125 390.885742188 427.014648438 357.46484375 427.014648438 c 0
 352.791015625 427.014648438 349.24609375 427.985351562 347.215820312 430.014648438 c 0
 68.306640625 708.92578125 68.306640625 708.92578125 67.888671875 709.6484375 c 0
 67.2890625 710.6875 67 711.876953125 67 713.1953125 c 0
 67 734.599609375 135.779296875 778.977539062 169.200195312 778.977539062 c 0
 173.874023438 778.977539062 177.418945312 778.006835938 179.44921875 775.977539062 c 0
 458.358398438 497.06640625 458.358398438 497.06640625 458.776367188 496.34375 c 0
 459.375976562 495.3046875 459.665039062 494.115234375 459.665039062 492.796875 c 0x20
79.1611328125 -36.8291015625 m 0xa0
 74.3134765625 -36.8291015625 67 -35.7099609375 67 -28.953125 c 0
 67 -23.658203125 71.673828125 -16.28515625 79.697265625 -8.26171875 c 2
 821.844726562 733.88671875 l 2
 844.926757812 756.96875 888.669921875 778.977539062 911.34765625 778.977539062 c 0
 916.1953125 778.977539062 923.508789062 777.858398438 923.508789062 771.1015625 c 0
 923.508789062 765.806640625 918.834960938 758.43359375 910.811523438 750.41015625 c 2
 168.6640625 8.26171875 l 2
 145.58203125 -14.8203125 101.838867188 -36.8291015625 79.1611328125 -36.8291015625 c 0xa0
EndSplineSet
Validated: 524289
EndChar

StartChar: Z
Encoding: 90 90 53
Width: 992
Flags: W
HStem: -36.8291 73.6582<197.231 878.836> 705.319 73.6582<111.678 793.282>
LayerCount: 2
Back
SplineSet
88.697265625 742.1484375 m 1
 830.849609375 742.1484375 l 1
 88.697265625 0 l 1
 830.849609375 0 l 1025
EndSplineSet
Fore
SplineSet
911.352539062 36.8291015625 m 2
 916.200195312 36.8291015625 923.513671875 35.7099609375 923.513671875 28.953125 c 0
 923.513671875 7.548828125 854.734375 -36.8291015625 821.313476562 -36.8291015625 c 2
 79.1611328125 -36.8291015625 l 2
 74.3134765625 -36.8291015625 67 -35.7099609375 67 -28.953125 c 0
 67 -23.658203125 71.673828125 -16.28515625 79.6982421875 -8.26171875 c 2
 793.282226562 705.319335938 l 1
 79.1611328125 705.319335938 l 2
 74.3134765625 705.319335938 67 706.438476562 67 713.1953125 c 0
 67 734.599609375 135.779296875 778.977539062 169.200195312 778.977539062 c 2
 911.352539062 778.977539062 l 2
 916.200195312 778.977539062 923.513671875 777.858398438 923.513671875 771.1015625 c 0
 923.513671875 765.806640625 918.83984375 758.43359375 910.815429688 750.41015625 c 2
 197.231445312 36.8291015625 l 1
 911.352539062 36.8291015625 l 2
EndSplineSet
Validated: 524289
EndChar

StartChar: uni0232
Encoding: 284 562 54
Width: 935
Flags: W
HStem: -36.8291 21G<47.0312 59.7896> -36.8291 21G<47.0312 59.7896> 798.089 73.6582<174.736 756.356>
LayerCount: 2
Back
SplineSet
836.623046875 649.37890625 m 5
 94.474609375 0 l 1029
94.474609375 649.37890625 m 5
 372.779296875 405.864257812 l 1029
187.239257812 834.91796875 m 5
 743.853515625 834.91796875 l 1029
EndSplineSet
Fore
SplineSet
801.034179688 863.87109375 m 0x20
 801.034179688 842.466796875 732.254882812 798.088867188 698.833984375 798.088867188 c 2
 142.219726562 798.088867188 l 2
 137.372070312 798.088867188 130.05859375 799.208007812 130.05859375 805.96484375 c 0
 130.05859375 827.369140625 198.837890625 871.747070312 232.258789062 871.747070312 c 2
 788.873046875 871.747070312 l 2
 793.720703125 871.747070312 801.034179688 870.627929688 801.034179688 863.87109375 c 0x20
429.959960938 434.817382812 m 0
 429.959960938 413.413085938 361.180664062 369.03515625 327.759765625 369.03515625 c 0
 323.334960938 369.03515625 319.922851562 369.904296875 317.849609375 371.71875 c 2
 39.544921875 615.233398438 l 2
 38.328125 616.297851562 37.2939453125 617.935546875 37.2939453125 620.42578125 c 0
 37.2939453125 641.830078125 106.073242188 686.208007812 139.494140625 686.208007812 c 0
 143.918945312 686.208007812 147.331054688 685.338867188 149.404296875 683.524414062 c 2
 427.708984375 440.009765625 l 2
 428.92578125 438.9453125 429.959960938 437.307617188 429.959960938 434.817382812 c 0
49.455078125 -36.8291015625 m 0xa0
 44.607421875 -36.8291015625 37.2939453125 -35.7099609375 37.2939453125 -28.953125 c 0
 37.2939453125 -22.5078125 44.2197265625 -12.984375 55.6806640625 -2.9560546875 c 2
 797.829101562 646.422851562 l 2
 822.250976562 667.791992188 860.973632812 686.208007812 881.642578125 686.208007812 c 0
 886.490234375 686.208007812 893.803710938 685.088867188 893.803710938 678.33203125 c 0
 893.803710938 671.88671875 886.877929688 662.36328125 875.416992188 652.334960938 c 2
 133.268554688 2.9560546875 l 2
 108.846679688 -18.4130859375 70.1240234375 -36.8291015625 49.455078125 -36.8291015625 c 0xa0
EndSplineSet
Validated: 524289
EndChar

StartChar: uni0233
Encoding: 285 563 55
Width: 1000
HStem: -36.8291 21G<47.0312 59.7896> -36.8291 21G<47.0312 59.7896> 798.089 73.6582<174.736 756.356>
LayerCount: 2
Fore
SplineSet
801.034179688 863.87109375 m 0x20
 801.034179688 842.466796875 732.254882812 798.088867188 698.833984375 798.088867188 c 2
 142.219726562 798.088867188 l 2
 137.372070312 798.088867188 130.05859375 799.208007812 130.05859375 805.96484375 c 0
 130.05859375 827.369140625 198.837890625 871.747070312 232.258789062 871.747070312 c 2
 788.873046875 871.747070312 l 2
 793.720703125 871.747070312 801.034179688 870.627929688 801.034179688 863.87109375 c 0x20
429.959960938 434.817382812 m 0
 429.959960938 413.413085938 361.180664062 369.03515625 327.759765625 369.03515625 c 0
 323.334960938 369.03515625 319.922851562 369.904296875 317.849609375 371.71875 c 2
 39.544921875 615.233398438 l 2
 38.328125 616.297851562 37.2939453125 617.935546875 37.2939453125 620.42578125 c 0
 37.2939453125 641.830078125 106.073242188 686.208007812 139.494140625 686.208007812 c 0
 143.918945312 686.208007812 147.331054688 685.338867188 149.404296875 683.524414062 c 2
 427.708984375 440.009765625 l 2
 428.92578125 438.9453125 429.959960938 437.307617188 429.959960938 434.817382812 c 0
49.455078125 -36.8291015625 m 0xa0
 44.607421875 -36.8291015625 37.2939453125 -35.7099609375 37.2939453125 -28.953125 c 0
 37.2939453125 -22.5078125 44.2197265625 -12.984375 55.6806640625 -2.9560546875 c 2
 797.829101562 646.422851562 l 2
 822.250976562 667.791992188 860.973632812 686.208007812 881.642578125 686.208007812 c 0
 886.490234375 686.208007812 893.803710938 685.088867188 893.803710938 678.33203125 c 0
 893.803710938 671.88671875 886.877929688 662.36328125 875.416992188 652.334960938 c 2
 133.268554688 2.9560546875 l 2
 108.846679688 -18.4130859375 70.1240234375 -36.8291015625 49.455078125 -36.8291015625 c 0xa0
EndSplineSet
Validated: 524289
EndChar

StartChar: Wmacron
Encoding: 286 -1 84
Width: 997
Flags: W
HStem: -36.8291 73.6582<184.854 419.641 555.926 790.715> 798.089 73.6582<207.939 789.553>
VStem: 70.4922 114.361<36.8291 649.277> 441.564 114.361<36.8291 463.742> 812.639 114.361<36.8291 649.277>
LayerCount: 2
Back
SplineSet
867.978515625 649.37890625 m 1
 867.978515625 0 l 1025
496.904296875 463.84375 m 1
 496.904296875 0 l 1
 775.208984375 0 l 1025
125.83203125 649.37890625 m 1
 125.83203125 0 l 1
 404.134765625 0 l 1025
218.6015625 834.91796875 m 1
 775.208984375 834.91796875 l 1025
EndSplineSet
Fore
SplineSet
834.23046875 863.87109375 m 0
 834.23046875 842.466796875 765.451171875 798.088867188 732.030273438 798.088867188 c 2
 175.422851562 798.088867188 l 2
 170.575195312 798.088867188 163.26171875 799.208007812 163.26171875 805.96484375 c 0
 163.26171875 827.369140625 232.041015625 871.747070312 265.461914062 871.747070312 c 2
 822.069335938 871.747070312 l 2
 826.916992188 871.747070312 834.23046875 870.627929688 834.23046875 863.87109375 c 0
82.6533203125 -36.8291015625 m 2
 77.8056640625 -36.8291015625 70.4921875 -35.7099609375 70.4921875 -28.953125 c 2
 70.4921875 620.42578125 l 2
 70.4921875 641.830078125 139.271484375 686.208007812 172.692382812 686.208007812 c 0
 177.540039062 686.208007812 184.853515625 685.088867188 184.853515625 678.33203125 c 2
 184.853515625 36.8291015625 l 1
 441.564453125 36.8291015625 l 1
 441.564453125 434.890625 l 2
 441.564453125 456.294921875 510.34375 500.672851562 543.764648438 500.672851562 c 0
 548.612304688 500.672851562 555.92578125 499.553710938 555.92578125 492.796875 c 2
 555.92578125 36.8291015625 l 1
 812.638671875 36.8291015625 l 1
 812.638671875 620.42578125 l 2
 812.638671875 641.830078125 881.41796875 686.208007812 914.838867188 686.208007812 c 0
 919.686523438 686.208007812 927 685.088867188 927 678.33203125 c 2
 927 28.953125 l 2
 927 7.548828125 858.220703125 -36.8291015625 824.799804688 -36.8291015625 c 0
 819.952148438 -36.8291015625 812.638671875 -35.7099609375 812.638671875 -28.953125 c 2
 812.638671875 0.283203125 l 1
 789.59375 -18.4990234375 753.509765625 -36.8291015625 732.030273438 -36.8291015625 c 2
 453.725585938 -36.8291015625 l 2
 448.877929688 -36.8291015625 441.564453125 -35.7099609375 441.564453125 -28.953125 c 2
 441.564453125 0.283203125 l 1
 418.51953125 -18.4990234375 382.435546875 -36.8291015625 360.956054688 -36.8291015625 c 2
 82.6533203125 -36.8291015625 l 2
EndSplineSet
Validated: 524289
Ligature2: "'liga' Standard Ligatures lookup 0-1" W uni0304
EndChar

StartChar: uni0304
Encoding: 288 772 86
Width: 0
GlyphClass: 4
Flags: W
HStem: 798.089 73.6582<-717.513 -233.892>
AnchorPoint: "Anchora 1" -476 830 mark 0
LayerCount: 2
Fore
SplineSet
-189.213867188 863.87109375 m 0
 -189.213867188 842.466796875 -257.993164062 798.088867188 -291.4140625 798.088867188 c 2
 -317 798.088867188 l 1
 -734 798.088867188 l 1
 -750.029296875 798.088867188 l 2
 -754.876953125 798.088867188 -762.190429688 799.208007812 -762.190429688 805.96484375 c 0
 -762.190429688 827.369140625 -693.411132812 871.747070312 -659.990234375 871.747070312 c 2
 -641 871.747070312 l 1
 -225 871.747070312 l 1
 -201.375 871.747070312 l 2
 -196.52734375 871.747070312 -189.213867188 870.627929688 -189.213867188 863.87109375 c 0
EndSplineSet
Validated: 524289
EndChar

